<?xml version="1.0" encoding="utf-8"?>
<!-- Generator: Adobe Illustrator 23.0.1, SVG Export Plug-In . SVG Version: 6.00 Build 0)  -->
<svg version="1.1" id="Layer_1" xmlns="http://www.w3.org/2000/svg" xmlns:xlink="http://www.w3.org/1999/xlink" x="0px" y="0px"
	 viewBox="0 0 1920 1152.4" style="enable-background:new 0 0 1920 1152.4;" xml:space="preserve">
<style type="text/css">
	.st0{clip-path:url(#SVGID_2_);}
	.st1{clip-path:url(#SVGID_4_);fill:#2A3942;}
	.st2{clip-path:url(#SVGID_6_);}
	.st3{clip-path:url(#SVGID_8_);fill:#13D389;}
</style>
<g>
	<g>
		<g>
			<g>
				<defs>
					<path id="SVGID_1_" d="M1467.7,993.7V754.8h28.8v153.1l77.9-83.1h36l-64.8,68.7l66.1,100.1h-34.4l-51.7-79.2l-29.1,30.4v48.8
						h-28.8V993.7z M1185.6,993.7V824.9h24.5l1,26.5c13.4-20.9,30.1-30.4,53-30.4c23.6,0,39.6,10.1,46.5,29.4
						c14.1-20.9,31.4-29.4,53-29.4c33.7,0,52.4,20.3,52.4,57.6v115.2h-28.8v-113c0-22.6-9.8-33.4-27.5-33.4s-32.1,11.1-44.5,35.7
						v110.6h-28.8V880.8c0-22.6-9.8-33.4-27.5-33.4c-18,0-32.1,11.1-44.5,37.3v109H1185.6z M1017.4,993.7V754.8h18.3v164.6
						l93.6-93.3h23.6l-68.7,68.4l70,99.1h-22.3l-60.9-86.1l-35.3,34.7v51.4L1017.4,993.7L1017.4,993.7z M908.8,997.6
						c-43.8,0-68.4-24.9-68.4-71v-33.4c0-46.1,24.2-71,68.1-71c40.6,0,63.8,21.3,65.4,57.9h-17.7c-2-28.1-18-41.9-47.1-41.9
						c-33.7,0-50.4,18.3-50.4,56v31.4c0,37.6,16.7,56,50.4,56c29.1,0,45.2-13.7,47.1-41.9h17.7C972.3,975.7,949.7,997.6,908.8,997.6
						z M680.1,898.2h102.4v-3.6c0-38-16.7-56.3-51.4-56.3c-34.7,0-51,18.3-51,56.3L680.1,898.2L680.1,898.2z M732.7,997.6
						c-45.8,0-71-24.9-71-71v-33.4c0-46.1,24.5-71,69.4-71s69,24.9,69,71v20.6h-120v11.5c0,38,17,56.3,52,56.3
						c30.1,0,47.1-13.7,49.1-37h17.7C796.6,979,772.3,997.6,732.7,997.6z M485.4,993.7V754.8h18.3v100.8
						c14.1-22.6,33.4-33.4,58.2-33.4c34.7,0,52.4,20.9,52.4,60.5v110.9H596v-109c0-30.8-11.8-45.8-37-45.8
						c-23.6,0-41.9,13.1-55.3,43.5v111.3L485.4,993.7L485.4,993.7z M376.7,997.6c-43.8,0-68.4-24.9-68.4-71v-33.4
						c0-46.1,24.2-71,68.1-71c40.6,0,63.8,21.3,65.4,57.9h-17.7c-2-28.1-18-41.9-47.1-41.9c-33.7,0-50.4,18.3-50.4,56v31.4
						c0,37.6,16.7,56,50.4,56c29.1,0,45.2-13.7,47.1-41.9h17.7C440.2,975.7,417.6,997.6,376.7,997.6z"/>
				</defs>
				<clipPath id="SVGID_2_">
					<use xlink:href="#SVGID_1_"  style="overflow:visible;"/>
				</clipPath>
				<g class="st0">
					<g>
						<g>
							<defs>
								<rect id="SVGID_3_" x="-765.8" y="-468.4" width="4986.2" height="2804.8"/>
							</defs>
							<clipPath id="SVGID_4_">
								<use xlink:href="#SVGID_3_"  style="overflow:visible;"/>
							</clipPath>
							<rect x="295.4" y="741.8" class="st1" width="1329.3" height="268.8"/>
						</g>
					</g>
				</g>
			</g>
		</g>
	</g>
	<g>
		<g>
			<g>
				<defs>
					<path id="SVGID_5_" d="M813.5,332.6v85.7l105-67.9v176.7l41.4,23.9l41.4-23.9V350.5l105,67.9v-85.7l-146.4-91.8L813.5,332.6z
						 M960,144.7l223.1,129v258.1L960,660.8L736.9,531.9V273.8L960,144.7z"/>
				</defs>
				<clipPath id="SVGID_6_">
					<use xlink:href="#SVGID_5_"  style="overflow:visible;"/>
				</clipPath>
				<g class="st2">
					<g>
						<g>
							<defs>
								<rect id="SVGID_7_" x="251.3" y="-966.8" width="4986.2" height="2804.8"/>
							</defs>
							<clipPath id="SVGID_8_">
								<use xlink:href="#SVGID_7_"  style="overflow:visible;"/>
							</clipPath>
							<rect x="723.9" y="131.7" class="st3" width="472.1" height="542.2"/>
						</g>
					</g>
				</g>
			</g>
		</g>
	</g>
</g>
</svg>
