<?xml version="1.0" encoding="UTF-8" standalone="no"?>
<!-- Created with Inkscape (http://www.inkscape.org/) -->
<svg
   xmlns:dc="http://purl.org/dc/elements/1.1/"
   xmlns:cc="http://web.resource.org/cc/"
   xmlns:rdf="http://www.w3.org/1999/02/22-rdf-syntax-ns#"
   xmlns:svg="http://www.w3.org/2000/svg"
   xmlns="http://www.w3.org/2000/svg"
   xmlns:sodipodi="http://sodipodi.sourceforge.net/DTD/sodipodi-0.dtd"
   xmlns:inkscape="http://www.inkscape.org/namespaces/inkscape"
   width="585.0354"
   height="555.7323"
   id="svg1968"
   sodipodi:version="0.32"
   inkscape:version="0.44"
   version="1.0"
   sodipodi:docbase="C:\Dokumente und Einstellungen\Andreas\Eigene Dateien\Eigene Bilder\sonstiges\Logos\Vektor\Computer, Electronics"
   sodipodi:docname="MacOS.svg">
  <defs
     id="defs1970" />
  <sodipodi:namedview
     id="base"
     pagecolor="#ffffff"
     bordercolor="#666666"
     borderopacity="1.0"
     inkscape:pageopacity="0.0"
     inkscape:pageshadow="2"
     inkscape:zoom="0.35"
     inkscape:cx="350"
     inkscape:cy="205.14359"
     inkscape:document-units="px"
     inkscape:current-layer="layer1"
     width="165.11mm"
     height="156.84mm"
     units="mm"
     inkscape:window-width="904"
     inkscape:window-height="574"
     inkscape:window-x="56"
     inkscape:window-y="28" />
  <metadata
     id="metadata1973">
    <rdf:RDF>
      <cc:Work
         rdf:about="">
        <dc:format>image/svg+xml</dc:format>
        <dc:type
           rdf:resource="http://purl.org/dc/dcmitype/StillImage" />
      </cc:Work>
    </rdf:RDF>
  </metadata>
  <g
     inkscape:label="Ebene 1"
     inkscape:groupmode="layer"
     id="layer1"
     transform="translate(3489.581,920.6177)">
    <g
       id="Ebene_x0020_1"
       transform="matrix(2.429911,0,0,2.429911,-3488.653,-919.7613)">
  <metadata
   id="CorelCorpID_0Corel-Layer" />

  <g
   id="_228026664">
   <g
   id="g4158">
    <path
   d="M 54.6048,19.5378 L 129.8674,19.5378 C 107.1152,61.1482 109.7608,80.3598 109.8999,80.2086 L 134.4754,80.2086 C 133.91908,82.46124 127.0948,107.8682 133.7074,127.0558 L 54.6048,127.0558 L 54.6048,19.5378 L 54.6048,19.5378 z "
   id="_226915152"
   style="fill:#8294c9;fill-rule:nonzero" />

    <path
   d="M 186.698,127.056 L 132.1711,127.056 C 125.53438,109.9789 132.36154,82.4615 132.9391,80.2088 L 108.3636,80.2088 C 108.20328,80.36 107.47764,56.9788 128.3312,19.538 L 186.698,19.538 L 186.698,127.056 L 186.698,127.056 z "
   id="_137919136"
   style="fill:#c9d3ec;fill-rule:nonzero" />

    <polygon
   points="143.691,51.0252 143.691,35.6656 150.603,35.6656 150.603,51.0252 143.691,51.0252 "
   id="_226601952"
   style="fill:black;fill-rule:nonzero" />

    <polygon
   points="86.8602,51.0252 86.8602,35.6656 93.7721,35.6656 93.7721,51.0252 86.8602,51.0252 "
   id="_22274024"
   style="fill:#32438f;fill-rule:nonzero" />

    <path
   d="M 126.795,100.944 C 105.3126,101.8632 90.4336,98.25612 77.644,91.72824 L 74.572,97.10412 C 87.2861,104.52996 107.5743,108.02822 126.795,107.08788 L 126.795,100.944 z "
   id="_228133648"
   style="fill:#32438f;fill-rule:nonzero" />

    <path
   d="M 136.011,145.487 C 125.6856,124.815 124.2131,101.0527 128.33124,84.0482 L 105.29164,84.0482 C 105.84496,47.9317 124.25544,17.9289 138.31504,1.1058 L 142.92292,4.94568 C 131.29732,19.35598 114.32612,44.60578 111.43552,77.90438 L 136.01102,77.90438 C 134.07902,84.8495 132.53402,92.39928 132.17114,100.17588 C 146.28214,98.81232 153.61134,97.0314 163.65854,91.72812 L 167.49842,97.104 C 158.42174,102.108 145.77112,105.38244 132.17112,106.31976 C 132.80904,118.46846 135.53028,130.34206 141.387,142.41516 L 136.011,145.48704 L 136.011,145.487 z "
   id="_140071192"
   style="fill:black;fill-rule:nonzero" />

   </g>

   <g
   id="g4166">
    <path
   d="M 13.9016,162.383 C 14.55164,162.57656 15.15032,162.57656 15.4376,163.919 L 30.0292,209.2302 C 30.47668,209.57184 30.67924,209.7654 30.7972,209.9982 C 31.1812,209.7654 31.4806,209.466 31.5652,209.2302 L 46.157,164.687 C 46.41092,163.3748 46.61348,162.57656 47.69288,162.383 L 57.67676,162.383 C 58.65632,162.57656 59.255,163.17224 59.21276,163.919 C 59.255,166.06268 56.75756,164.86844 54.60476,166.223 C 52.98416,166.4588 52.68488,167.25704 52.30088,170.06288 L 52.30088,172.36688 L 53.83676,216.14208 C 54.08168,219.6192 53.77328,220.71972 56.14076,221.51796 C 58.45376,222.80904 60.74864,221.51796 60.74864,223.82196 C 60.74864,224.6988 60.05324,225.29436 58.44476,225.35784 C 57.35624,225.29436 54.66824,224.80464 50.76488,224.58996 C 46.80704,224.80464 44.3216,225.29436 43.085,225.35784 C 41.63372,225.29436 40.83248,224.6988 40.78112,223.82196 C 40.83248,221.51796 43.6172,222.90576 46.157,221.51796 C 47.51156,220.71972 47.702,219.42864 47.69288,216.14208 L 47.69288,213.83808 L 46.925,173.90288 C 46.71032,173.2316 46.61348,172.72964 46.157,172.36688 C 46.30508,172.72964 46.0058,173.02904 46.157,173.13488 L 30.0292,222.28588 C 29.485,223.10824 29.28244,223.31092 29.2612,223.05388 C 28.68376,223.31092 28.4932,223.10824 28.4932,222.28588 L 12.3656,173.13488 C 12.06632,172.93232 11.76692,172.72964 11.5976,172.36688 C 11.26508,172.72964 11.17124,173.13488 10.8296,173.90288 L 9.29372,206.15828 C 9.56876,208.67684 9.47504,210.9596 9.29372,213.07004 C 9.47504,219.4286 9.77444,222.41588 13.1336,222.28592 C 13.65668,222.41588 14.25236,222.30704 14.6696,222.28592 C 15.64916,222.30704 16.24784,222.90572 16.20548,223.82192 C 16.24784,224.8046 15.35288,225.40016 13.9016,225.3578 C 12.06632,225.40016 10.16744,224.99504 8.52572,225.3578 C 5.88908,224.99504 4.00244,225.40016 2.38184,225.3578 C 1.85564,225.37292 1.4264,225.29744 1.07864,225.16136 L 1.07864,222.33728 C 1.23584,222.30104 1.41428,222.28892 1.61384,222.28592 C 2.30624,222.30704 2.60552,222.41588 3.14984,222.28592 C 6.2852,222.41588 6.69032,218.23436 6.98972,206.15832 L 9.29372,170.83092 L 9.29372,169.29492 C 9.07904,167.3538 8.48336,166.2654 6.98972,165.45504 C 4.39856,164.9652 2.40296,165.969 2.38184,163.91904 C 2.40296,163.07856 2.99864,162.5766 3.91772,162.38304 L 13.9016,162.38304 L 13.9016,162.383 z "
   id="_227265944"
   style="fill:black;fill-rule:nonzero" />

    <path
   d="M 90.7002,216.142 C 90.37968,220.02424 91.38348,222.11656 93.00408,222.28588 C 94.5612,222.11656 95.85228,219.9184 96.84408,219.98188 C 96.94992,219.9184 97.34592,220.32364 97.61208,220.74988 C 97.34592,222.71224 92.26632,226.78792 89.9322,226.89376 C 86.99928,226.78792 85.80504,224.80456 84.55632,219.98188 C 79.73064,224.08192 76.33824,226.66696 72.65852,226.89376 L 71.50052,226.89376 L 70.39388,226.89376 C 66.16988,226.6912 63.80252,223.71904 63.82064,219.21388 C 63.79952,211.7578 70.8716,206.88388 84.55624,199.24638 L 84.55624,190.0305 C 84.51388,184.28274 83.61592,181.7973 79.18024,181.58262 C 76.04488,181.7973 72.66148,184.58202 71.50048,187.7265 C 70.07032,191.9505 69.07852,195.23706 65.3566,195.40638 C 64.49176,195.23706 63.70264,194.53254 63.8206,193.87038 C 63.70264,188.76066 71.07412,179.59928 81.4842,179.27878 C 89.8776,179.5993 90.37956,184.08022 90.70008,190.79858 L 90.70008,216.14208 L 90.7002,216.142 z M 83.78832,202.3182 C 83.91528,202.10652 83.51016,202.20024 83.02032,202.3182 L 79.94832,203.8542 C 73.26024,208.07808 69.86782,212.15388 69.96456,216.91 C 69.86784,220.32364 71.86332,222.71224 75.34044,223.05388 C 79.12596,222.71224 84.60768,218.82988 84.55632,212.30208 L 84.55632,203.0862 C 84.60768,202.49964 84.3114,202.10652 83.78832,202.3182 L 83.78832,202.3182 z "
   id="_225689336"
   style="fill:black;fill-rule:nonzero" />

    <path
   d="M 129.099,185.423 C 128.88432,189.75572 128.28864,191.95088 127.563,191.56688 C 126.0996,191.95088 126.00588,190.3514 124.491,187.72688 C 122.31408,183.58772 120.12804,181.59512 116.81112,181.583 C 110.1744,181.59512 104.39342,188.85776 104.52332,203.0866 C 104.39336,216.2391 110.17436,223.801 118.34712,223.8222 C 125.20464,223.80096 128.09508,218.72448 129.09902,218.44632 C 129.18362,218.72448 129.58874,219.02376 129.8669,219.2142 C 129.60086,221.14032 124.80254,226.72776 117.6911,226.89408 L 116.81114,226.89408 L 116.1551,226.89408 C 105.8598,226.78824 98.2314,217.33356 98.3795,203.08658 C 98.22842,188.96358 107.78582,179.70528 117.5791,180.04708 C 124.70266,179.70532 128.8843,181.89448 129.099,185.42296 L 129.099,185.423 z "
   id="_137307080"
   style="fill:black;fill-rule:nonzero" />

    <path
   d="M 202.058,193.87 C 202.00352,212.6524 190.0484,226.7422 175.8588,226.8934 L 175.17852,226.8934 L 174.51036,226.8934 C 160.40846,226.74532 148.35046,212.7492 148.29916,193.87 C 148.35052,174.8216 160.78946,160.7832 175.17856,160.8467 C 189.66146,160.78322 202.00356,174.9274 202.05806,193.87 L 202.058,193.87 z M 155.9788,193.87 C 156.11788,213.1544 164.47804,224.3022 175.1784,224.5895 C 185.8758,224.30222 194.3448,213.0485 194.378,193.87 C 194.34476,174.7248 185.87576,163.4711 175.1784,163.1506 C 164.6716,163.47112 156.1178,174.7248 155.9788,193.87 z "
   id="_224937840"
   style="fill:#8294c9;fill-rule:nonzero" />

    <path
   d="M 223.562,160.847 C 228.8744,160.78352 234.0477,162.779 235.0818,163.91888 C 235.53828,164.56892 235.83768,167.95232 235.8498,173.90276 C 235.83768,175.22708 235.33572,175.91948 235.0818,176.20664 C 233.44908,175.91948 233.65164,174.03272 232.0098,170.83076 C 230.36808,165.86 227.3808,163.37468 222.79404,163.15088 C 216.02124,163.37468 211.94544,167.35364 212.04214,173.90278 C 211.94542,180.19774 216.02122,183.38458 224.32994,187.72638 C 233.4491,192.64578 238.62244,197.42298 238.92174,206.92598 C 238.63146,218.45788 230.68554,226.66378 220.69874,226.89358 L 219.72206,226.89358 L 217.58438,226.89358 C 213.02186,226.68802 209.19098,225.09766 207.43428,223.8217 C 205.97088,222.2131 205.76832,220.71946 205.89828,217.67782 C 205.76832,214.84162 205.86504,212.6557 205.89828,211.53394 C 205.86504,208.97602 206.27028,207.87538 207.43428,207.69394 C 208.95816,207.87538 207.65808,212.15374 209.73828,216.90982 C 211.4436,221.61442 215.5284,224.39914 220.49008,224.5897 C 227.87056,224.39914 232.85048,219.1291 232.77788,211.5339 C 232.85048,202.89558 228.27584,199.5122 219.72208,194.6381 C 211.25308,190.35074 206.86888,186.76778 206.66628,177.7425 C 206.86884,167.75874 213.5358,160.7834 223.56208,160.8469 L 223.562,160.847 z "
   id="_224930352"
   style="fill:#8294c9;fill-rule:nonzero" />

    <polygon
   points="127.01,177.742 127.01,169.656 127.01,169.656 123.905,169.656 123.905,169.656 123.905,169.106 123.905,168.555 123.905,168.555 131.359,168.555 131.359,168.555 131.359,169.106 131.359,169.656 131.359,169.656 128.254,169.656 128.254,169.656 128.254,177.742 128.254,177.742 127.635,177.742 127.01,177.742 "
   id="_138464376"
   style="fill:black;fill-rule:nonzero" />

    <polygon
   points="133.616,177.742 133.616,177.742 133.016,177.742 132.411,177.742 132.411,177.742 132.411,168.555 132.411,168.555 133.304,168.555 134.196,168.555 134.196,168.555 136.826,176.373 136.824,176.373 136.824,176.373 139.43,168.555 139.43,168.555 140.322,168.555 141.215,168.555 141.215,168.555 141.215,177.742 141.215,177.742 140.616,177.742 140.01,177.742 140.01,177.742 140.01,169.967 140.006,169.967 137.417,177.742 136.815,177.742 136.216,177.742 133.618,169.993 133.616,169.993 133.616,177.742 "
   id="polygon4174"
   style="fill:black;fill-rule:nonzero" />

   </g>

  </g>

 </g>
  </g>
</svg>
