<?xml version="1.0" encoding="UTF-8" standalone="no"?>
<!-- Created with Inkscape (http://www.inkscape.org/) -->

<svg
   xmlns:dc="http://purl.org/dc/elements/1.1/"
   xmlns:cc="http://creativecommons.org/ns#"
   xmlns:rdf="http://www.w3.org/1999/02/22-rdf-syntax-ns#"
   xmlns:svg="http://www.w3.org/2000/svg"
   xmlns="http://www.w3.org/2000/svg"
   xmlns:xlink="http://www.w3.org/1999/xlink"
   xmlns:sodipodi="http://sodipodi.sourceforge.net/DTD/sodipodi-0.dtd"
   xmlns:inkscape="http://www.inkscape.org/namespaces/inkscape"
   width="251.24168mm"
   height="176.47859mm"
   viewBox="0 0 251.24169 176.4786"
   version="1.1"
   id="svg8"
   inkscape:version="0.92.4 (5da689c313, 2019-01-14)"
   sodipodi:docname="license-certificate-premium.svg"
   inkscape:export-filename="/home/timo/Bilder/license-certificate/license-certificate-premium.png"
   inkscape:export-xdpi="170.92844"
   inkscape:export-ydpi="170.92844"
   style="enable-background:new">
  <defs
     id="defs2">
    <clipPath
       clipPathUnits="userSpaceOnUse"
       id="clipPath826">
      <g
         inkscape:label="Clip"
         id="use828">
        <rect
           transform="rotate(-45)"
           y="-12.901624"
           x="-54.298336"
           height="71.628227"
           width="93.009789"
           id="rect887"
           style="fill:#515150;fill-opacity:1;stroke-width:0.26458332" />
      </g>
    </clipPath>
    <clipPath
       clipPathUnits="userSpaceOnUse"
       id="clipPath854">
      <g
         id="use856"
         inkscape:label="Clip">
        <g
           id="g883"
           clip-path="url(#clipPath826)">
          <g
             inkscape:label="Clip"
             id="g881">
            <rect
               transform="rotate(-45)"
               y="-12.901624"
               x="-54.298336"
               height="71.628227"
               width="93.009789"
               id="rect879"
               style="fill:#515150;fill-opacity:1;stroke-width:0.26458332" />
          </g>
        </g>
      </g>
    </clipPath>
    <clipPath
       clipPathUnits="userSpaceOnUse"
       id="clipPath875">
      <path
         style="fill:none;stroke:#000000;stroke-width:0.26458332px;stroke-linecap:butt;stroke-linejoin:miter;stroke-opacity:1"
         d="M 52.384828,23.316004 H 168.91434 V 129.15474 H 22.985179 V 49.508418 L 48.910325,23.583273 Z"
         id="path877"
         inkscape:connector-curvature="0" />
    </clipPath>
    <clipPath
       clipPathUnits="userSpaceOnUse"
       id="clipPath1700">
      <use
         x="0"
         y="0"
         xlink:href="#g1696"
         id="use1702"
         width="100%"
         height="100%" />
    </clipPath>
    <clipPath
       clipPathUnits="userSpaceOnUse"
       id="clipPath1711">
      <use
         x="0"
         y="0"
         xlink:href="#g1707"
         id="use1713"
         width="100%"
         height="100%" />
    </clipPath>
    <clipPath
       clipPathUnits="userSpaceOnUse"
       id="clipPath1759">
      <g
         style="fill:#515150;fill-opacity:1"
         inkscape:label="Clip"
         id="use1761">
        <path
           inkscape:connector-curvature="0"
           id="path2402"
           transform="matrix(0.26458333,0,0,0.26458333,-3.4525829,24.16808)"
           d="M 237.66211,67.824219 V 194.5332 h -1.45117 -26.26563 -94.95312 V 467.8457 H 456.61133 A 151.73502,151.73502 0 0 1 411.16211,359.74414 151.73502,151.73502 0 0 1 562.89648,208.00781 151.73502,151.73502 0 0 1 664.51562,247.29492 V 67.824219 Z m -27.7168,4.042969 -94.95312,94.953122 h 94.95312 z"
           style="fill:#515150;fill-opacity:1;stroke-width:0.99999994" />
      </g>
    </clipPath>
    <clipPath
       clipPathUnits="userSpaceOnUse"
       id="clipPath2003">
      <g
         inkscape:label="Clip"
         id="use2005">
        <g
           transform="translate(13.810329,-135.80159)"
           id="g2081">
          <rect
             style="fill:#f95150;fill-opacity:1;stroke-width:0.18118699"
             id="rect2069"
             width="32.606884"
             height="6.9489999"
             x="16.080015"
             y="188.37897" />
          <g
             id="g2079"
             clip-path="url(#clipPath1711)"
             transform="matrix(1,0,0,0.67516188,-7.4397049,157.21006)">
            <g
               inkscape:label="Clip"
               id="g2077">
              <g
                 clip-path="url(#clipPath1700)"
                 id="g2075">
                <g
                   id="g2073"
                   inkscape:label="Clip">
                  <rect
                     y="49.177593"
                     x="-56.457428"
                     height="6.949007"
                     width="50.781212"
                     id="rect2071"
                     style="fill:#f95150;fill-opacity:1;stroke-width:0.22611226"
                     transform="rotate(-90)" />
                </g>
              </g>
            </g>
          </g>
        </g>
      </g>
    </clipPath>
    <clipPath
       clipPathUnits="userSpaceOnUse"
       id="clipPath2204">
      <g
         inkscape:label="Clip"
         id="use2206"
         style="fill:#515150;fill-opacity:1">
        <g
           transform="translate(3.4525829,-24.16808)"
           clip-path="url(#clipPath1759)"
           id="g908"
           style="fill:#515150;fill-opacity:1">
          <g
             id="g906"
             inkscape:label="Clip"
             style="fill:#515150;fill-opacity:1">
            <path
               style="fill:#515150;fill-opacity:1;stroke-width:0.99999994"
               d="M 237.66211,67.824219 V 194.5332 h -1.45117 -26.26563 -94.95312 V 467.8457 H 456.61133 A 151.73502,151.73502 0 0 1 411.16211,359.74414 151.73502,151.73502 0 0 1 562.89648,208.00781 151.73502,151.73502 0 0 1 664.51562,247.29492 V 67.824219 Z m -27.7168,4.042969 -94.95312,94.953122 h 94.95312 z"
               transform="matrix(0.26458333,0,0,0.26458333,-3.4525829,24.16808)"
               id="path904"
               inkscape:connector-curvature="0" />
          </g>
        </g>
      </g>
    </clipPath>
  </defs>
  <sodipodi:namedview
     id="base"
     pagecolor="#ffffff"
     bordercolor="#666666"
     borderopacity="1.0"
     inkscape:pageopacity="0.0"
     inkscape:pageshadow="2"
     inkscape:zoom="0.9753846"
     inkscape:cx="431.83403"
     inkscape:cy="256.14229"
     inkscape:document-units="mm"
     inkscape:current-layer="layer1"
     showgrid="false"
     inkscape:measure-start="0,0"
     inkscape:measure-end="0,0"
     inkscape:window-width="1920"
     inkscape:window-height="1135"
     inkscape:window-x="1920"
     inkscape:window-y="0"
     inkscape:window-maximized="1" />
  <metadata
     id="metadata5">
    <rdf:RDF>
      <cc:Work
         rdf:about="">
        <dc:format>image/svg+xml</dc:format>
        <dc:type
           rdf:resource="http://purl.org/dc/dcmitype/StillImage" />
        <dc:title />
      </cc:Work>
    </rdf:RDF>
  </metadata>
  <g
     inkscape:groupmode="layer"
     id="layer3"
     inkscape:label="Ebene 3"
     transform="translate(38.96686,4.2823991)"
     style="display:inline" />
  <g
     inkscape:groupmode="layer"
     id="layer2"
     inkscape:label="Ebene 2"
     transform="translate(38.96686,4.2823991)"
     style="display:inline;opacity:1">
    <path
       transform="translate(-30.425017,-17.945157)"
       style="display:inline;opacity:1;fill:#dc0a2e;fill-opacity:1;stroke:none;stroke-width:0.63723475;stroke-linecap:butt;stroke-miterlimit:4;stroke-dasharray:none;stroke-dashoffset:25.00000191;stroke-opacity:1;paint-order:stroke markers fill"
       d="M 42.086768,19.81411 -1.6235525,63.524431 v 0.02199 H 42.109171 V 19.81411 Z"
       id="rect2408"
       inkscape:connector-curvature="0" />
    <path
       style="display:inline;opacity:1;fill:none;fill-opacity:1;stroke:#515151;stroke-width:3;stroke-linecap:butt;stroke-miterlimit:4;stroke-dasharray:none;stroke-dashoffset:25.00000191;stroke-opacity:1;paint-order:stroke markers fill"
       d="M 210.33398,1.5 V 207.43359 H 1.5 v 338.66993 h 802.64648 a 70.741362,69.716094 0 0 1 -21.89062,-50.3125 70.741362,69.716094 0 0 1 70.74023,-69.7168 70.741362,69.716094 0 0 1 52.03711,22.5918 V 1.5 Z M 905.0332,542.89258 a 70.741362,69.716094 0 0 1 -3.09765,3.21094 h 3.09765 z"
       transform="matrix(0.26458333,0,0,0.26458333,-38.96686,-4.2823991)"
       id="rect2413"
       inkscape:connector-curvature="0" />
    <rect
       style="opacity:1;fill:none;fill-opacity:1;stroke:none;stroke-width:0.36460137;stroke-linecap:butt;stroke-miterlimit:4;stroke-dasharray:none;stroke-dashoffset:25.00000191;stroke-opacity:1;paint-order:stroke markers fill"
       id="rect2573"
       width="32.557682"
       height="32.551262"
       x="172.60994"
       y="113.06139" />
  </g>
  <g
     inkscape:label="Ebene 1"
     inkscape:groupmode="layer"
     id="layer1"
     transform="translate(8.541843,-13.662758)"
     style="display:inline">
    <g
       transform="translate(13.810329,-143.85761)"
       id="g1990">
      <g
         id="g1709"
         clip-path="url(#clipPath1711)"
         transform="matrix(1.0552587,0,0,0.67517097,-10.157194,157.20955)">
        <g
           inkscape:label="Clip"
           id="g1707">
          <g
             clip-path="url(#clipPath1700)"
             id="g1698">
            <g
               id="g1696"
               inkscape:label="Clip">
              <g
                 id="g2095">
                <g
                   id="g2221" />
              </g>
            </g>
          </g>
        </g>
      </g>
    </g>
    <g
       id="g880">
      <g
         transform="matrix(0.67386213,0,0,0.67386213,116.45494,80.571037)"
         style="fill:#dc0a2e;fill-opacity:1"
         id="g2310">
        <path
           style="fill:#dc0a2e;fill-opacity:1;stroke:#9c1cff;stroke-width:0;stroke-miterlimit:4;stroke-dasharray:none;stroke-opacity:1"
           d="m 150.01438,124.98842 -21.14258,-9.85894 -17.5388,37.61202 12.72227,-0.87609 8.41174,10.5982 0.0586,0.0296 z"
           id="rect2271"
           inkscape:connector-curvature="0" />
        <path
           id="path2279"
           d="m 169.8566,115.12946 -21.1426,9.85896 17.53877,37.61208 7.50659,-10.30897 13.52564,0.36862 0.0603,-0.026 z"
           style="fill:#dc0a2e;fill-opacity:1;stroke:#9c1cff;stroke-width:0;stroke-miterlimit:4;stroke-dasharray:none;stroke-opacity:1"
           inkscape:connector-curvature="0" />
      </g>
      <g
         transform="matrix(0.67386213,0,0,0.67386213,116.45494,80.571037)"
         style="fill:none;fill-opacity:1;stroke:#ebd10f;stroke-opacity:1"
         id="g2315">
        <g
           style="fill:none;fill-opacity:1;stroke:#ebd10f;stroke-opacity:1"
           id="g2246"
           transform="matrix(1.0532089,0,0,1.0532089,-8.2102489,-3.9217595)">
          <circle
             r="15.46185"
             cy="94.097122"
             cx="149.20424"
             id="path2242"
             style="fill:none;fill-opacity:1;stroke:#ebd10f;stroke-width:4.76249981;stroke-miterlimit:4;stroke-dasharray:none;stroke-opacity:1" />
        </g>
        <circle
           style="fill:none;fill-opacity:1;stroke:#ebd10f;stroke-width:4.76249981;stroke-miterlimit:4;stroke-dasharray:none;stroke-opacity:1"
           id="path2248"
           cx="148.93298"
           cy="95.182167"
           r="28.617985" />
      </g>
    </g>
    <g
       id="g1068"
       transform="matrix(0.26458333,0,0,0.26458333,27.287133,-38.353852)">
      <g
         id="g976">
	<path
   id="path968"
   d="m 162.496,289.639 c 0,-3.007 0.426,-5.688 1.278,-8.043 0.851,-2.354 2.003,-4.333 3.457,-5.938 1.453,-1.603 3.144,-2.83 5.073,-3.684 1.928,-0.851 3.971,-1.277 6.126,-1.277 2.154,0 4.196,0.427 6.125,1.277 1.929,0.854 3.62,2.081 5.074,3.684 1.453,1.604 2.604,3.583 3.457,5.938 0.852,2.355 1.278,5.036 1.278,8.043 0,2.957 -0.427,5.6 -1.278,7.929 -0.853,2.332 -2.004,4.299 -3.457,5.9 -1.454,1.604 -3.146,2.833 -5.074,3.684 -1.929,0.85 -3.971,1.276 -6.125,1.276 -2.155,0 -4.198,-0.427 -6.126,-1.276 -1.93,-0.851 -3.62,-2.08 -5.073,-3.684 -1.454,-1.602 -2.606,-3.568 -3.457,-5.9 -0.852,-2.33 -1.278,-4.972 -1.278,-7.929 z m 2.405,0 c 0,2.506 0.35,4.772 1.053,6.803 0.7,2.029 1.652,3.782 2.855,5.261 1.203,1.479 2.631,2.619 4.284,3.421 1.654,0.802 3.432,1.2 5.337,1.2 1.903,0 3.683,-0.398 5.336,-1.2 1.654,-0.802 3.082,-1.941 4.284,-3.421 1.203,-1.479 2.154,-3.231 2.856,-5.261 0.701,-2.03 1.052,-4.297 1.052,-6.803 0,-2.455 -0.351,-4.724 -1.052,-6.803 -0.702,-2.079 -1.653,-3.858 -2.856,-5.336 -1.202,-1.478 -2.63,-2.631 -4.284,-3.457 -1.653,-0.828 -3.433,-1.24 -5.336,-1.24 -1.905,0 -3.683,0.412 -5.337,1.24 -1.653,0.826 -3.081,1.979 -4.284,3.457 -1.203,1.478 -2.155,3.257 -2.855,5.336 -0.703,2.079 -1.053,4.348 -1.053,6.803 z"
   inkscape:connector-curvature="0" />

	<path
   id="path970"
   d="m 204.136,310.684 v 13.531 h -2.255 V 271.6 h 1.954 l 0.301,4.66 h 0.149 c 1.805,-1.453 3.771,-2.743 5.901,-3.871 2.129,-1.128 4.321,-1.691 6.576,-1.691 4.86,0 8.48,1.667 10.861,4.998 2.379,3.334 3.569,7.779 3.569,13.342 0,3.058 -0.426,5.787 -1.276,8.193 -0.854,2.405 -2.006,4.434 -3.459,6.086 -1.453,1.656 -3.144,2.92 -5.072,3.796 -1.931,0.876 -3.973,1.315 -6.126,1.315 -1.755,0 -3.559,-0.388 -5.412,-1.164 -1.854,-0.777 -3.758,-1.891 -5.712,-3.344 v 6.764 z m 0,-9.322 c 2.204,1.807 4.271,3.084 6.2,3.835 1.929,0.75 3.62,1.126 5.074,1.126 1.954,0 3.745,-0.424 5.374,-1.277 1.627,-0.851 3.044,-2.041 4.246,-3.568 1.203,-1.53 2.129,-3.356 2.781,-5.487 0.65,-2.131 0.978,-4.447 0.978,-6.953 0,-2.304 -0.214,-4.445 -0.639,-6.427 -0.427,-1.979 -1.128,-3.693 -2.105,-5.148 -0.977,-1.452 -2.242,-2.593 -3.796,-3.419 -1.554,-0.828 -3.432,-1.24 -5.637,-1.24 -1.905,0 -3.871,0.539 -5.899,1.615 -2.03,1.078 -4.223,2.645 -6.577,4.697 z"
   inkscape:connector-curvature="0" />

	<path
   id="path972"
   d="m 237.057,289.639 c 0,-2.905 0.438,-5.537 1.315,-7.892 0.876,-2.355 2.029,-4.347 3.458,-5.977 1.428,-1.627 3.068,-2.88 4.923,-3.757 1.853,-0.876 3.782,-1.316 5.787,-1.316 4.159,0 7.452,1.417 9.884,4.247 2.43,2.832 3.646,6.928 3.646,12.289 0,0.401 0,0.79 0,1.165 0,0.375 -0.051,0.789 -0.15,1.24 h -26.457 c 0,2.405 0.338,4.622 1.015,6.651 0.676,2.029 1.628,3.795 2.856,5.3 1.227,1.502 2.706,2.667 4.435,3.495 1.729,0.827 3.67,1.238 5.824,1.238 2.055,0 3.883,-0.299 5.487,-0.901 1.604,-0.601 3.082,-1.402 4.436,-2.403 l 1.051,1.954 c -1.353,0.854 -2.868,1.64 -4.546,2.367 -1.681,0.726 -3.872,1.088 -6.577,1.088 -2.255,0 -4.373,-0.427 -6.352,-1.276 -1.98,-0.851 -3.721,-2.093 -5.225,-3.72 -1.503,-1.63 -2.681,-3.596 -3.531,-5.901 -0.854,-2.303 -1.279,-4.934 -1.279,-7.891 z m 26.757,-1.954 c 0,-5.011 -1.028,-8.744 -3.081,-11.2 -2.056,-2.454 -4.786,-3.682 -8.193,-3.682 -1.604,0 -3.157,0.352 -4.66,1.053 -1.503,0.701 -2.845,1.69 -4.021,2.968 -1.178,1.278 -2.154,2.831 -2.931,4.66 -0.777,1.829 -1.267,3.897 -1.466,6.201 z"
   inkscape:connector-curvature="0" />

	<path
   id="path974"
   d="m 273.887,271.6 h 1.954 l 0.301,5.713 h 0.149 c 1.904,-1.904 3.834,-3.483 5.788,-4.736 1.954,-1.251 4.184,-1.879 6.689,-1.879 3.707,0 6.438,1.103 8.192,3.307 1.754,2.206 2.631,5.664 2.631,10.372 v 23.15 h -2.255 v -22.849 c 0,-4.009 -0.676,-6.99 -2.029,-8.944 -1.353,-1.954 -3.583,-2.931 -6.689,-2.931 -2.255,0 -4.322,0.6 -6.201,1.803 -1.879,1.204 -3.972,3.007 -6.275,5.412 v 27.509 h -2.255 z"
   inkscape:connector-curvature="0" />

</g>
      <g
         id="g982">
	<path
   id="path978"
   d="m 336.037,268.36 c 2.446,-0.528 4.892,-0.953 7.338,-1.275 -1.918,11.698 -1.918,23.398 0,35.098 -2.446,-0.323 -4.892,-0.748 -7.338,-1.275 -3.141,-10.849 -3.141,-21.699 0,-32.548 z"
   inkscape:connector-curvature="0" />

	<path
   id="path980"
   d="m 357.596,273.312 c -3.208,-0.054 -6.416,-0.012 -9.624,0.124 0.126,-2.292 0.291,-4.583 0.494,-6.875 8.42,-0.618 16.839,-0.02 25.259,1.799 0.598,2.063 1.081,4.127 1.451,6.19 -3.208,-0.398 -6.416,-0.703 -9.624,-0.912 0.828,9.58 0.574,19.16 -0.763,28.739 -2.463,0.281 -4.925,0.456 -7.388,0.526 0.34,-9.862 0.406,-19.726 0.195,-29.591 z"
   inkscape:connector-curvature="0" />

</g>
      <g
         id="g1004">
	<path
   id="path984"
   d="m 506.089,337.13 c 0,-1.617 0.25,-3.064 0.747,-4.345 0.499,-1.28 1.159,-2.364 1.981,-3.254 0.823,-0.889 1.759,-1.568 2.81,-2.04 1.053,-0.472 2.144,-0.709 3.274,-0.709 1.24,0 2.351,0.215 3.336,0.647 0.981,0.431 1.805,1.05 2.464,1.858 0.661,0.809 1.166,1.777 1.518,2.91 0.35,1.133 0.524,2.4 0.524,3.799 0,0.729 -0.04,1.335 -0.12,1.819 h -13.258 c 0.133,2.131 0.786,3.815 1.96,5.054 1.171,1.238 2.7,1.858 4.587,1.858 0.941,0 1.812,-0.142 2.607,-0.424 0.795,-0.282 1.556,-0.651 2.284,-1.11 l 1.171,2.182 c -0.862,0.539 -1.819,1.011 -2.868,1.415 -1.053,0.404 -2.253,0.606 -3.599,0.606 -1.32,0 -2.553,-0.237 -3.698,-0.709 -1.146,-0.469 -2.144,-1.143 -2.992,-2.019 -0.848,-0.876 -1.516,-1.947 -2,-3.215 -0.484,-1.268 -0.728,-2.706 -0.728,-4.323 z m 13.744,-1.495 c 0,-2.021 -0.425,-3.565 -1.273,-4.627 -0.849,-1.065 -2.041,-1.598 -3.576,-1.598 -0.703,0 -1.37,0.141 -2.002,0.423 -0.633,0.282 -1.207,0.687 -1.717,1.213 -0.514,0.526 -0.938,1.175 -1.274,1.941 -0.336,0.766 -0.56,1.649 -0.667,2.647 h 10.509 z"
   style="fill:#dc0a2e"
   inkscape:connector-curvature="0" />

	<path
   id="path986"
   d="m 527.998,327.267 h 2.75 l 0.282,2.83 h 0.12 c 0.943,-0.943 1.934,-1.729 2.971,-2.365 1.038,-0.632 2.245,-0.949 3.618,-0.949 2.076,0 3.591,0.647 4.547,1.94 0.956,1.294 1.436,3.206 1.436,5.741 v 12.449 h -3.314 v -12.007 c 0,-1.857 -0.297,-3.199 -0.891,-4.021 -0.592,-0.821 -1.535,-1.232 -2.828,-1.232 -1.025,0 -1.927,0.254 -2.708,0.768 -0.781,0.513 -1.672,1.267 -2.668,2.262 v 14.23 h -3.314 v -19.646 z"
   style="fill:#dc0a2e"
   inkscape:connector-curvature="0" />

	<path
   id="path988"
   d="m 551.078,329.975 h -2.91 v -2.506 l 3.072,-0.202 0.404,-5.497 h 2.79 v 5.497 h 5.294 v 2.708 h -5.294 v 10.916 c 0,1.213 0.221,2.149 0.665,2.808 0.445,0.661 1.234,0.991 2.365,0.991 0.35,0 0.727,-0.055 1.131,-0.163 0.404,-0.106 0.771,-0.229 1.093,-0.363 l 0.646,2.506 c -0.539,0.189 -1.126,0.356 -1.758,0.508 -0.634,0.147 -1.262,0.221 -1.881,0.221 -1.049,0 -1.934,-0.16 -2.647,-0.484 -0.713,-0.324 -1.293,-0.77 -1.738,-1.335 -0.443,-0.564 -0.761,-1.251 -0.95,-2.06 -0.188,-0.809 -0.282,-1.701 -0.282,-2.67 z"
   style="fill:#dc0a2e"
   inkscape:connector-curvature="0" />

	<path
   id="path990"
   d="m 562.719,337.13 c 0,-1.617 0.251,-3.064 0.748,-4.345 0.499,-1.28 1.158,-2.364 1.981,-3.254 0.823,-0.889 1.758,-1.568 2.81,-2.04 1.052,-0.472 2.143,-0.709 3.274,-0.709 1.239,0 2.35,0.215 3.335,0.647 0.981,0.431 1.805,1.05 2.464,1.858 0.661,0.809 1.167,1.777 1.519,2.91 0.35,1.133 0.524,2.4 0.524,3.799 0,0.729 -0.04,1.335 -0.12,1.819 h -13.259 c 0.133,2.131 0.786,3.815 1.961,5.054 1.171,1.238 2.7,1.858 4.587,1.858 0.941,0 1.811,-0.142 2.606,-0.424 0.795,-0.282 1.557,-0.651 2.285,-1.11 l 1.171,2.182 c -0.863,0.539 -1.819,1.011 -2.869,1.415 -1.052,0.404 -2.252,0.606 -3.598,0.606 -1.321,0 -2.553,-0.237 -3.698,-0.709 -1.146,-0.469 -2.144,-1.143 -2.992,-2.019 -0.848,-0.876 -1.517,-1.947 -2.001,-3.215 -0.484,-1.268 -0.728,-2.706 -0.728,-4.323 z m 13.745,-1.495 c 0,-2.021 -0.426,-3.565 -1.274,-4.627 -0.849,-1.065 -2.04,-1.598 -3.576,-1.598 -0.702,0 -1.37,0.141 -2.002,0.423 -0.632,0.282 -1.206,0.687 -1.717,1.213 -0.513,0.526 -0.937,1.175 -1.273,1.941 -0.336,0.766 -0.561,1.649 -0.668,2.647 h 10.51 z"
   style="fill:#dc0a2e"
   inkscape:connector-curvature="0" />

	<path
   id="path992"
   d="m 584.628,327.267 h 2.75 l 0.282,3.559 h 0.12 c 0.674,-1.239 1.489,-2.224 2.447,-2.952 0.956,-0.726 1.999,-1.091 3.132,-1.091 0.781,0 1.482,0.135 2.102,0.404 l -0.646,2.91 c -0.323,-0.106 -0.621,-0.189 -0.889,-0.241 -0.27,-0.055 -0.606,-0.083 -1.011,-0.083 -0.836,0 -1.706,0.337 -2.607,1.011 -0.903,0.674 -1.691,1.848 -2.365,3.517 v 12.613 h -3.314 v -19.647 z"
   style="fill:#dc0a2e"
   inkscape:connector-curvature="0" />

	<path
   id="path994"
   d="m 602.372,348.569 v 6.629 h -3.314 v -27.932 h 2.75 l 0.282,2.265 h 0.122 c 0.889,-0.754 1.864,-1.401 2.93,-1.94 1.066,-0.539 2.175,-0.809 3.335,-0.809 1.266,0 2.386,0.237 3.354,0.709 0.971,0.472 1.779,1.146 2.426,2.018 0.647,0.876 1.14,1.929 1.477,3.154 0.337,1.225 0.504,2.609 0.504,4.143 0,1.672 -0.229,3.161 -0.687,4.467 -0.459,1.309 -1.078,2.419 -1.859,3.337 -0.782,0.914 -1.684,1.61 -2.709,2.079 -1.024,0.472 -2.102,0.709 -3.232,0.709 -0.918,0 -1.826,-0.202 -2.729,-0.606 -0.903,-0.404 -1.813,-0.956 -2.729,-1.658 z m 0,-6.023 c 0.891,0.754 1.752,1.287 2.588,1.599 0.836,0.308 1.577,0.465 2.224,0.465 0.807,0 1.557,-0.183 2.243,-0.546 0.688,-0.365 1.278,-0.876 1.779,-1.536 0.497,-0.661 0.889,-1.477 1.171,-2.445 0.282,-0.973 0.425,-2.063 0.425,-3.276 0,-1.075 -0.095,-2.06 -0.283,-2.948 -0.188,-0.89 -0.491,-1.653 -0.908,-2.285 -0.419,-0.632 -0.958,-1.126 -1.617,-1.476 -0.661,-0.35 -1.45,-0.526 -2.365,-0.526 -0.836,0 -1.678,0.23 -2.526,0.689 -0.849,0.456 -1.759,1.117 -2.729,1.98 v 10.305 z"
   style="fill:#dc0a2e"
   inkscape:connector-curvature="0" />

	<path
   id="path996"
   d="m 621.896,327.267 h 2.748 l 0.282,3.559 h 0.122 c 0.674,-1.239 1.489,-2.224 2.445,-2.952 0.956,-0.726 2.002,-1.091 3.133,-1.091 0.782,0 1.481,0.135 2.104,0.404 l -0.647,2.91 c -0.324,-0.106 -0.62,-0.189 -0.89,-0.241 -0.27,-0.055 -0.606,-0.083 -1.011,-0.083 -0.836,0 -1.703,0.337 -2.606,1.011 -0.903,0.674 -1.692,1.848 -2.365,3.517 v 12.613 h -3.314 v -19.647 z"
   style="fill:#dc0a2e"
   inkscape:connector-curvature="0" />

	<path
   id="path998"
   d="m 638.024,323.227 c -0.648,0 -1.194,-0.202 -1.637,-0.606 -0.446,-0.404 -0.667,-0.918 -0.667,-1.537 0,-0.648 0.221,-1.165 0.667,-1.556 0.442,-0.392 0.988,-0.588 1.637,-0.588 0.646,0 1.191,0.196 1.636,0.588 0.446,0.391 0.668,0.907 0.668,1.556 0,0.619 -0.222,1.133 -0.668,1.537 -0.444,0.403 -0.989,0.606 -1.636,0.606 z m -1.697,4.04 h 3.314 v 19.646 h -3.314 z"
   style="fill:#dc0a2e"
   inkscape:connector-curvature="0" />

	<path
   id="path1000"
   d="m 646.148,342.466 c 0.861,0.703 1.744,1.268 2.647,1.697 0.901,0.434 1.946,0.648 3.132,0.648 1.293,0 2.265,-0.299 2.91,-0.889 0.648,-0.594 0.971,-1.322 0.971,-2.186 0,-0.51 -0.135,-0.956 -0.404,-1.331 -0.27,-0.379 -0.613,-0.709 -1.032,-0.992 -0.417,-0.282 -0.895,-0.532 -1.434,-0.747 -0.539,-0.215 -1.078,-0.43 -1.617,-0.648 -0.7,-0.24 -1.401,-0.517 -2.102,-0.828 -0.7,-0.308 -1.327,-0.687 -1.881,-1.132 -0.552,-0.443 -1.003,-0.963 -1.354,-1.557 -0.351,-0.591 -0.525,-1.306 -0.525,-2.141 0,-0.782 0.156,-1.518 0.466,-2.204 0.31,-0.686 0.754,-1.28 1.333,-1.777 0.581,-0.501 1.287,-0.889 2.122,-1.175 0.836,-0.282 1.779,-0.423 2.83,-0.423 1.239,0 2.378,0.215 3.416,0.647 1.036,0.431 1.934,0.956 2.688,1.576 l -1.577,2.102 c -0.674,-0.511 -1.373,-0.931 -2.102,-1.252 -0.727,-0.324 -1.521,-0.487 -2.384,-0.487 -1.24,0 -2.15,0.285 -2.728,0.851 -0.581,0.564 -0.87,1.226 -0.87,1.979 0,0.459 0.12,0.856 0.363,1.193 0.243,0.337 0.565,0.632 0.97,0.889 0.405,0.257 0.868,0.484 1.395,0.687 0.527,0.203 1.072,0.411 1.637,0.626 0.701,0.27 1.408,0.556 2.124,0.851 0.712,0.295 1.354,0.667 1.919,1.11 0.566,0.445 1.03,0.991 1.396,1.64 0.362,0.645 0.546,1.428 0.546,2.342 0,0.809 -0.157,1.562 -0.466,2.266 -0.311,0.699 -0.769,1.318 -1.375,1.857 -0.606,0.539 -1.36,0.966 -2.264,1.274 -0.901,0.308 -1.933,0.465 -3.092,0.465 -1.401,0 -2.735,-0.257 -4.002,-0.767 -1.267,-0.514 -2.372,-1.158 -3.315,-1.941 z"
   style="fill:#dc0a2e"
   inkscape:connector-curvature="0" />

	<path
   id="path1002"
   d="m 662.558,337.13 c 0,-1.617 0.251,-3.064 0.748,-4.345 0.499,-1.28 1.158,-2.364 1.981,-3.254 0.823,-0.889 1.758,-1.568 2.809,-2.04 1.053,-0.472 2.144,-0.709 3.274,-0.709 1.24,0 2.351,0.215 3.336,0.647 0.981,0.431 1.805,1.05 2.464,1.858 0.661,0.809 1.167,1.777 1.518,2.91 0.351,1.133 0.525,2.4 0.525,3.799 0,0.729 -0.04,1.335 -0.121,1.819 h -13.258 c 0.133,2.131 0.786,3.815 1.961,5.054 1.171,1.238 2.699,1.858 4.586,1.858 0.942,0 1.812,-0.142 2.607,-0.424 0.795,-0.282 1.557,-0.651 2.284,-1.11 l 1.172,2.182 c -0.863,0.539 -1.819,1.011 -2.869,1.415 -1.052,0.404 -2.252,0.606 -3.599,0.606 -1.32,0 -2.552,-0.237 -3.697,-0.709 -1.146,-0.469 -2.144,-1.143 -2.992,-2.019 -0.848,-0.876 -1.517,-1.947 -2.001,-3.215 -0.484,-1.268 -0.728,-2.706 -0.728,-4.323 z m 13.745,-1.495 c 0,-2.021 -0.426,-3.565 -1.274,-4.627 -0.849,-1.065 -2.041,-1.598 -3.576,-1.598 -0.702,0 -1.37,0.141 -2.002,0.423 -0.632,0.282 -1.206,0.687 -1.717,1.213 -0.514,0.526 -0.937,1.175 -1.273,1.941 -0.336,0.766 -0.561,1.649 -0.668,2.647 h 10.51 z"
   style="fill:#dc0a2e"
   inkscape:connector-curvature="0" />

</g>
      <g
         id="g1020">
	<path
   id="path1006"
   d="m 404.092,283.512 c 0,-4.06 0.626,-7.68 1.879,-10.863 1.252,-3.182 2.944,-5.875 5.075,-8.079 2.129,-2.206 4.609,-3.885 7.442,-5.038 2.83,-1.151 5.823,-1.728 8.98,-1.728 3.059,0 5.827,0.639 8.308,1.915 2.48,1.279 4.547,2.771 6.202,4.474 l -6.09,6.841 c -1.253,-1.152 -2.519,-2.054 -3.796,-2.707 -1.277,-0.649 -2.769,-0.977 -4.473,-0.977 -1.704,0 -3.296,0.364 -4.773,1.091 -1.477,0.727 -2.771,1.767 -3.871,3.119 -1.104,1.353 -1.967,3.006 -2.593,4.96 -0.628,1.956 -0.939,4.16 -0.939,6.616 0,5.062 1.076,8.983 3.23,11.764 2.155,2.782 5.038,4.173 8.646,4.173 2.004,0 3.759,-0.401 5.261,-1.203 1.505,-0.801 2.856,-1.854 4.061,-3.157 l 6.088,6.689 c -2.055,2.406 -4.397,4.209 -7.028,5.413 -2.631,1.203 -5.476,1.803 -8.532,1.803 -3.157,0 -6.14,-0.539 -8.944,-1.614 -2.809,-1.078 -5.263,-2.669 -7.368,-4.774 -2.104,-2.104 -3.758,-4.722 -4.96,-7.855 -1.204,-3.132 -1.805,-6.755 -1.805,-10.863 z"
   inkscape:connector-curvature="0" />

	<path
   id="path1008"
   d="m 467.31,308.617 c -3.306,0 -6.325,-0.587 -9.056,-1.765 -2.734,-1.178 -5.076,-2.868 -7.03,-5.076 -1.954,-2.203 -3.471,-4.885 -4.547,-8.042 -1.078,-3.157 -1.617,-6.739 -1.617,-10.749 0,-4.009 0.539,-7.579 1.617,-10.712 1.076,-3.132 2.593,-5.763 4.547,-7.894 1.954,-2.129 4.296,-3.758 7.03,-4.886 2.73,-1.128 5.75,-1.69 9.056,-1.69 3.309,0 6.326,0.562 9.059,1.69 2.733,1.128 5.074,2.77 7.028,4.924 1.954,2.155 3.469,4.799 4.549,7.931 1.076,3.132 1.615,6.679 1.615,10.637 0,4.01 -0.539,7.592 -1.615,10.749 -1.08,3.157 -2.595,5.839 -4.549,8.042 -1.954,2.208 -4.296,3.898 -7.028,5.076 -2.732,1.178 -5.751,1.765 -9.059,1.765 z m 0,-9.545 c 3.358,0 6.015,-1.44 7.969,-4.322 1.954,-2.881 2.932,-6.804 2.932,-11.765 0,-4.911 -0.978,-8.745 -2.932,-11.502 -1.954,-2.754 -4.61,-4.134 -7.969,-4.134 -3.357,0 -6.013,1.38 -7.969,4.134 -1.954,2.757 -2.929,6.591 -2.929,11.502 0,4.961 0.975,8.884 2.929,11.765 1.956,2.882 4.611,4.322 7.969,4.322 z"
   inkscape:connector-curvature="0" />

	<path
   id="path1010"
   d="m 493.469,283.512 c 0,-4.06 0.626,-7.68 1.881,-10.863 1.251,-3.182 2.942,-5.875 5.072,-8.079 2.131,-2.206 4.611,-3.885 7.443,-5.038 2.831,-1.151 5.825,-1.728 8.982,-1.728 3.057,0 5.827,0.639 8.308,1.915 2.479,1.279 4.546,2.771 6.2,4.474 l -6.088,6.841 c -1.255,-1.152 -2.52,-2.054 -3.796,-2.707 -1.279,-0.649 -2.77,-0.977 -4.474,-0.977 -1.703,0 -3.295,0.364 -4.774,1.091 -1.478,0.727 -2.769,1.767 -3.869,3.119 -1.104,1.353 -1.969,3.006 -2.595,4.96 -0.627,1.956 -0.938,4.16 -0.938,6.616 0,5.062 1.075,8.983 3.231,11.764 2.152,2.782 5.037,4.173 8.644,4.173 2.006,0 3.76,-0.401 5.263,-1.203 1.503,-0.801 2.855,-1.854 4.059,-3.157 l 6.091,6.689 c -2.057,2.406 -4.399,4.209 -7.03,5.413 -2.632,1.203 -5.475,1.803 -8.532,1.803 -3.157,0 -6.139,-0.539 -8.944,-1.614 -2.808,-1.078 -5.262,-2.669 -7.367,-4.774 -2.104,-2.104 -3.759,-4.722 -4.961,-7.855 -1.205,-3.132 -1.806,-6.755 -1.806,-10.863 z"
   inkscape:connector-curvature="0" />

	<path
   id="path1012"
   d="m 536.541,258.705 h 11.049 v 20.07 h 0.302 l 14.584,-20.07 h 12.177 l -14.809,19.544 17.515,29.467 h -12.103 l -11.951,-20.672 -5.715,7.517 v 13.155 h -11.049 z"
   inkscape:connector-curvature="0" />

	<path
   id="path1014"
   d="m 581.191,258.705 h 17.892 c 2.655,0 5.148,0.264 7.479,0.789 2.33,0.526 4.359,1.404 6.089,2.632 1.728,1.229 3.095,2.855 4.098,4.885 1.001,2.029 1.502,4.524 1.502,7.479 0,2.857 -0.514,5.338 -1.541,7.442 -1.028,2.105 -2.417,3.833 -4.173,5.188 -1.753,1.353 -3.783,2.354 -6.087,3.006 -2.307,0.651 -4.762,0.978 -7.367,0.978 h -6.841 v 16.612 h -11.051 z m 17.215,23.604 c 6.013,0 9.02,-2.605 9.02,-7.818 0,-2.556 -0.764,-4.358 -2.291,-5.411 -1.53,-1.053 -3.773,-1.579 -6.729,-1.579 h -6.164 v 14.809 h 6.164 z"
   inkscape:connector-curvature="0" />

	<path
   id="path1016"
   d="m 623.737,258.705 h 11.049 v 49.011 h -11.049 z"
   inkscape:connector-curvature="0" />

	<path
   id="path1018"
   d="M 654.406,268.026 H 640.95 v -9.321 h 38.038 v 9.321 h -13.456 v 39.689 h -11.126 z"
   inkscape:connector-curvature="0" />

</g>
      <g
         id="g1028">
	<polygon
   id="polygon1022"
   points="311.229,344.604 300.686,335.278 293.883,343.082 304.529,352.293 "
   style="fill:#dc0a2e" />

	<path
   id="path1024"
   d="m 320.581,312.453 -18.342,21.043 10.545,9.326 18.44,-21.158 c -4.004,-2.471 -7.595,-5.583 -10.643,-9.211 z"
   style="fill:#dc0a2e"
   inkscape:connector-curvature="0" />

	<path
   id="path1026"
   d="m 391.168,271.376 c -6.994,-20.303 -29.1,-31.086 -49.401,-24.102 -20.295,6.99 -31.083,29.11 -24.098,49.405 6.993,20.303 29.112,31.091 49.406,24.104 20.293,-6.997 31.073,-29.108 24.093,-49.407 z m -27.176,40.173 c -15.237,5.239 -31.843,-2.857 -37.085,-18.085 -5.255,-15.236 2.85,-31.848 18.091,-37.084 15.222,-5.247 31.819,2.85 37.064,18.086 5.253,15.226 -2.855,31.838 -18.07,37.083 z"
   style="fill:#dc0a2e"
   inkscape:connector-curvature="0" />

</g>
    </g>
  </g>
</svg>
