<?xml version="1.0" encoding="UTF-8" standalone="no"?>
<!-- Created with Inkscape (http://www.inkscape.org/) -->

<svg
   xmlns:dc="http://purl.org/dc/elements/1.1/"
   xmlns:cc="http://creativecommons.org/ns#"
   xmlns:rdf="http://www.w3.org/1999/02/22-rdf-syntax-ns#"
   xmlns:svg="http://www.w3.org/2000/svg"
   xmlns="http://www.w3.org/2000/svg"
   xmlns:xlink="http://www.w3.org/1999/xlink"
   xmlns:sodipodi="http://sodipodi.sourceforge.net/DTD/sodipodi-0.dtd"
   xmlns:inkscape="http://www.inkscape.org/namespaces/inkscape"
   width="251.24168mm"
   height="176.47859mm"
   viewBox="0 0 251.24169 176.4786"
   version="1.1"
   id="svg8"
   inkscape:version="0.92.4 (5da689c313, 2019-01-14)"
   sodipodi:docname="license-certificate-enterprise.svg"
   inkscape:export-filename="/home/timo/Bilder/certs/license-certificate-enterprise.png"
   inkscape:export-xdpi="170.92844"
   inkscape:export-ydpi="170.92844"
   style="enable-background:new">
  <defs
     id="defs2"><clipPath
   clipPathUnits="userSpaceOnUse"
   id="clipPath826">
  <g
     inkscape:label="Clip"
     id="use828">
    <rect
       transform="rotate(-45)"
       y="-12.901624"
       x="-54.298336"
       height="71.628227"
       width="93.009789"
       id="rect887"
       style="fill:#515150;fill-opacity:1;stroke-width:0.26458332" />
  </g>
</clipPath>
<clipPath
   clipPathUnits="userSpaceOnUse"
   id="clipPath854">
  <g
     id="use856"
     inkscape:label="Clip">
    <g
       id="g883"
       clip-path="url(#clipPath826)">
      <g
         inkscape:label="Clip"
         id="g881">
        <rect
           transform="rotate(-45)"
           y="-12.901624"
           x="-54.298336"
           height="71.628227"
           width="93.009789"
           id="rect879"
           style="fill:#515150;fill-opacity:1;stroke-width:0.26458332" />
      </g>
    </g>
  </g>
</clipPath>
<clipPath
   clipPathUnits="userSpaceOnUse"
   id="clipPath875">
  <path
     style="fill:none;stroke:#000000;stroke-width:0.26458332px;stroke-linecap:butt;stroke-linejoin:miter;stroke-opacity:1"
     d="M 52.384828,23.316004 H 168.91434 V 129.15474 H 22.985179 V 49.508418 L 48.910325,23.583273 Z"
     id="path877"
     inkscape:connector-curvature="0" />
</clipPath>
<clipPath
   clipPathUnits="userSpaceOnUse"
   id="clipPath1700">
  <use
     x="0"
     y="0"
     xlink:href="#g1696"
     id="use1702"
     width="100%"
     height="100%" />
</clipPath>
<clipPath
   clipPathUnits="userSpaceOnUse"
   id="clipPath1711">
  <use
     x="0"
     y="0"
     xlink:href="#g1707"
     id="use1713"
     width="100%"
     height="100%" />
</clipPath>
<clipPath
   clipPathUnits="userSpaceOnUse"
   id="clipPath1759">
  <g
     style="fill:#515150;fill-opacity:1"
     inkscape:label="Clip"
     id="use1761">
    <path
       inkscape:connector-curvature="0"
       id="path2402"
       transform="matrix(0.26458333,0,0,0.26458333,-3.4525829,24.16808)"
       d="M 237.66211,67.824219 V 194.5332 h -1.45117 -26.26563 -94.95312 V 467.8457 H 456.61133 A 151.73502,151.73502 0 0 1 411.16211,359.74414 151.73502,151.73502 0 0 1 562.89648,208.00781 151.73502,151.73502 0 0 1 664.51562,247.29492 V 67.824219 Z m -27.7168,4.042969 -94.95312,94.953122 h 94.95312 z"
       style="fill:#515150;fill-opacity:1;stroke-width:0.99999994" />
  </g>
</clipPath>
<clipPath
   clipPathUnits="userSpaceOnUse"
   id="clipPath2003">
  <g
     inkscape:label="Clip"
     id="use2005">
    <g
       transform="translate(13.810329,-135.80159)"
       id="g2081">
      <rect
         style="fill:#f95150;fill-opacity:1;stroke-width:0.18118699"
         id="rect2069"
         width="32.606884"
         height="6.9489999"
         x="16.080015"
         y="188.37897" />
      <g
         id="g2079"
         clip-path="url(#clipPath1711)"
         transform="matrix(1,0,0,0.67516188,-7.4397049,157.21006)">
        <g
           inkscape:label="Clip"
           id="g2077">
          <g
             clip-path="url(#clipPath1700)"
             id="g2075">
            <g
               id="g2073"
               inkscape:label="Clip">
              <rect
                 y="49.177593"
                 x="-56.457428"
                 height="6.949007"
                 width="50.781212"
                 id="rect2071"
                 style="fill:#f95150;fill-opacity:1;stroke-width:0.22611226"
                 transform="rotate(-90)" />
            </g>
          </g>
        </g>
      </g>
    </g>
  </g>
</clipPath>
<clipPath
   clipPathUnits="userSpaceOnUse"
   id="clipPath2204">
  <g
     inkscape:label="Clip"
     id="use2206"
     style="fill:#515150;fill-opacity:1">
    <g
       transform="translate(3.4525829,-24.16808)"
       clip-path="url(#clipPath1759)"
       id="g908"
       style="fill:#515150;fill-opacity:1">
      <g
         id="g906"
         inkscape:label="Clip"
         style="fill:#515150;fill-opacity:1">
        <path
           style="fill:#515150;fill-opacity:1;stroke-width:0.99999994"
           d="M 237.66211,67.824219 V 194.5332 h -1.45117 -26.26563 -94.95312 V 467.8457 H 456.61133 A 151.73502,151.73502 0 0 1 411.16211,359.74414 151.73502,151.73502 0 0 1 562.89648,208.00781 151.73502,151.73502 0 0 1 664.51562,247.29492 V 67.824219 Z m -27.7168,4.042969 -94.95312,94.953122 h 94.95312 z"
           transform="matrix(0.26458333,0,0,0.26458333,-3.4525829,24.16808)"
           id="path904"
           inkscape:connector-curvature="0" />
      </g>
    </g>
  </g>
</clipPath>

	
	

		
		
		
	</defs>
  <sodipodi:namedview
     id="base"
     pagecolor="#ffffff"
     bordercolor="#666666"
     borderopacity="1.0"
     inkscape:pageopacity="0.0"
     inkscape:pageshadow="2"
     inkscape:zoom="0.68970107"
     inkscape:cx="364.86255"
     inkscape:cy="375.94659"
     inkscape:document-units="mm"
     inkscape:current-layer="layer1"
     showgrid="false"
     inkscape:measure-start="0,0"
     inkscape:measure-end="0,0"
     inkscape:window-width="1920"
     inkscape:window-height="1015"
     inkscape:window-x="1920"
     inkscape:window-y="108"
     inkscape:window-maximized="1" />
  <metadata
     id="metadata5">
    <rdf:RDF>
      <cc:Work
         rdf:about="">
        <dc:format>image/svg+xml</dc:format>
        <dc:type
           rdf:resource="http://purl.org/dc/dcmitype/StillImage" />
        <dc:title />
      </cc:Work>
    </rdf:RDF>
  </metadata>
  <g
     inkscape:groupmode="layer"
     id="layer3"
     inkscape:label="Ebene 3"
     transform="translate(38.96686,4.2823991)"
     style="display:inline" />
  <g
     inkscape:groupmode="layer"
     id="layer2"
     inkscape:label="Ebene 2"
     transform="translate(38.96686,4.2823991)"
     style="display:inline;opacity:1">
    <path
       transform="translate(-30.425017,-17.945157)"
       style="display:inline;opacity:1;fill:#dc0a2e;fill-opacity:1;stroke:none;stroke-width:0.63723475;stroke-linecap:butt;stroke-miterlimit:4;stroke-dasharray:none;stroke-dashoffset:25.00000191;stroke-opacity:1;paint-order:stroke markers fill"
       d="M 42.086768,19.81411 -1.6235525,63.524431 v 0.02199 H 42.109171 V 19.81411 Z"
       id="rect2408"
       inkscape:connector-curvature="0" />
    <path
       style="display:inline;opacity:1;fill:none;fill-opacity:1;stroke:#515151;stroke-width:3;stroke-linecap:butt;stroke-miterlimit:4;stroke-dasharray:none;stroke-dashoffset:25.00000191;stroke-opacity:1;paint-order:stroke markers fill"
       d="M 210.33398,1.5 V 207.43359 H 1.5 v 338.66993 h 802.64648 a 70.741362,69.716094 0 0 1 -21.89062,-50.3125 70.741362,69.716094 0 0 1 70.74023,-69.7168 70.741362,69.716094 0 0 1 52.03711,22.5918 V 1.5 Z M 905.0332,542.89258 a 70.741362,69.716094 0 0 1 -3.09765,3.21094 h 3.09765 z"
       transform="matrix(0.26458333,0,0,0.26458333,-38.96686,-4.2823991)"
       id="rect2413"
       inkscape:connector-curvature="0" />
    <g
       class="st0"
       id="HG"
       style="display:none"
       transform="matrix(0.1027924,0,0,0.1027924,-269.61261,9.2014438)">
			<rect
   id="rect907"
   height="1080"
   width="1400"
   class="st1"
   x="260"
   y="0"
   style="display:inline;fill:none" />

		</g>
    <g
       id="Text"
       transform="matrix(0.14967986,0,0,0.14967986,-35.317764,-111.56134)">
			<path
   d="m 1471.2,939.3 h 18.5 v -88.4 h 29.9 v -15.4 h -78.4 V 851 h 30 z m -61.4,0 h 18.4 V 835.4 h -18.4 z m -69.9,-53 V 850 h 14.9 c 6,-0.4 11.9,1 17.2,3.8 3.8,2.5 5.7,7 5.7,13.6 0.4,5.3 -1.6,10.6 -5.6,14.2 -5.1,3.5 -11.2,5.2 -17.4,4.7 z m -18.6,53 h 18.5 v -38 h 16.5 c 5.2,0 10.4,-0.6 15.5,-2 4.6,-1.2 8.8,-3.3 12.6,-6.2 3.6,-2.8 6.4,-6.4 8.4,-10.6 4,-9.7 4,-20.5 0,-30.2 -1.9,-3.9 -4.7,-7.3 -8.2,-9.9 -3.7,-2.6 -8,-4.5 -12.5,-5.4 -5.2,-1.1 -10.5,-1.6 -15.8,-1.6 h -34.9 v 103.9 z m -92.8,0 h 18.5 v -30.4 l 14.9,-18.6 28,49 h 20.3 l -37.3,-63.5 32.1,-40.3 h -20.3 l -37.1,47.3 h -0.5 v -47.3 h -18.5 z m -88.9,-28.8 c 2.2,6.2 5.6,12 10,16.9 4.2,4.5 9.3,8.1 15,10.3 5.9,2.3 12.2,3.5 18.5,3.5 6.2,0.1 12.4,-1.2 18.1,-3.8 5.5,-2.7 10.4,-6.5 14.4,-11.2 l -10.2,-11.4 c -2.7,3.1 -6,5.7 -9.7,7.6 -3.8,1.9 -8,2.8 -12.2,2.7 -8.2,0.3 -16,-3.5 -20.8,-10.1 -5.6,-8.2 -8.4,-18 -7.8,-27.9 -0.1,-5.3 0.7,-10.6 2.1,-15.8 1.3,-4.3 3.3,-8.3 6.1,-11.8 2.5,-3.2 5.7,-5.8 9.3,-7.6 3.7,-1.8 7.7,-2.7 11.8,-2.6 3.6,-0.1 7.3,0.7 10.5,2.3 3.2,1.6 6.1,3.8 8.7,6.3 l 10.2,-11.4 c -3.6,-3.8 -7.8,-6.9 -12.5,-9.2 -5.3,-2.6 -11.2,-3.9 -17.1,-3.8 -6.4,0 -12.8,1.3 -18.7,3.8 -5.8,2.4 -11,6 -15.2,10.7 -4.5,5 -8,10.8 -10.3,17.1 -2.6,7.3 -3.9,15.1 -3.8,22.8 -0.1,7.8 1.2,15.5 3.8,22.8 m -72.7,11.8 c -3.4,-1.9 -6.3,-4.5 -8.5,-7.6 -2.5,-3.7 -4.4,-7.7 -5.5,-12.1 -1.3,-5.2 -2,-10.5 -1.9,-15.8 -0.6,-9.7 2,-19.3 7.3,-27.5 4.6,-6.2 11.9,-9.9 19.6,-9.9 7.7,0 15,3.7 19.6,9.9 5.3,8.1 7.9,17.8 7.3,27.5 0.1,5.3 -0.6,10.7 -1.9,15.8 -1.1,4.3 -2.9,8.4 -5.4,12.1 -2.2,3.2 -5.1,5.8 -8.5,7.6 -6.9,3.6 -15.2,3.6 -22.1,0 m 29.7,15.1 c 5.6,-2.5 10.5,-6.2 14.5,-10.8 4.2,-5 7.4,-10.8 9.4,-17.1 2.3,-7.4 3.5,-15.1 3.3,-22.8 0.1,-7.6 -1,-15.2 -3.3,-22.5 -2,-6.2 -5.1,-11.9 -9.4,-16.8 -4,-4.5 -8.9,-8.1 -14.5,-10.5 -11.9,-4.9 -25.3,-4.9 -37.2,0 -5.6,2.4 -10.5,6 -14.5,10.5 -4.3,4.9 -7.5,10.6 -9.4,16.8 -2.3,7.3 -3.5,14.9 -3.3,22.5 -0.1,7.7 1,15.5 3.3,22.8 2,6.3 5.2,12.1 9.4,17.1 4,4.6 8.9,8.3 14.5,10.8 11.9,4.9 25.3,4.9 37.2,0 m -147.4,-27 c 2.2,6.2 5.6,12 10,16.9 4.2,4.5 9.4,8.1 15.2,10.3 5.9,2.3 12.2,3.5 18.5,3.5 6.2,0.1 12.4,-1.2 18.1,-3.8 5.5,-2.7 10.4,-6.5 14.4,-11.2 l -10.2,-11.4 c -2.7,3.1 -6,5.7 -9.7,7.6 -3.8,1.9 -8,2.8 -12.2,2.7 -8.2,0.3 -16,-3.5 -20.8,-10.1 -5.6,-8.2 -8.2,-18 -7.6,-27.9 -0.1,-5.3 0.7,-10.6 2.1,-15.8 1.3,-4.3 3.3,-8.3 6.1,-11.8 2.5,-3.2 5.7,-5.8 9.3,-7.6 3.7,-1.8 7.7,-2.7 11.8,-2.6 3.6,-0.1 7.3,0.7 10.5,2.3 3.2,1.6 6.1,3.8 8.7,6.3 l 10.2,-11.4 c -3.6,-3.8 -7.8,-6.9 -12.5,-9.2 -5.3,-2.6 -11.2,-3.9 -17.1,-3.8 -6.4,0 -12.8,1.3 -18.8,3.8 -5.8,2.4 -11,6.1 -15.2,10.7 -4.5,5 -8,10.8 -10.2,17.1 -2.6,7.3 -3.9,15.1 -3.8,22.8 -0.1,7.8 1.2,15.5 3.8,22.8 m -83.8,28.7 h 18.5 v -88.6 h 29.5 V 835.5 H 835.7 V 851 h 30 z m -65.3,0 h 18.4 v -104 h -18.4 z"
   class="st3"
   id="IT_COCKPIT_1_"
   inkscape:connector-curvature="0"
   style="fill:#de092f" />

			<path
   d="m 678.7,939.3 h 14.5 V 877 c 3.5,-3.7 7.5,-7 11.7,-9.9 3.5,-2.3 7.7,-3.5 11.9,-3.4 4.8,-0.4 9.4,1.6 12.4,5.4 2.6,3.6 3.9,9.5 3.9,17.6 v 52.6 h 14.5 v -54.5 c 0,-11.1 -2.1,-19.5 -6.3,-25.1 -4.2,-5.6 -10.8,-8.5 -19.9,-8.5 -5.5,-0.1 -10.9,1.3 -15.7,4.1 -4.7,2.9 -9.1,6.4 -13,10.4 H 692 l -1.2,-12.5 h -12 z m -77,-49.4 c 0.4,-4 1.4,-7.9 2.9,-11.6 1.3,-3.1 3.2,-6 5.6,-8.5 2.1,-2.2 4.7,-4 7.5,-5.3 2.7,-1.2 5.7,-1.9 8.8,-1.9 6,-0.3 11.9,2.3 15.7,7 3.7,4.6 5.6,11.4 5.6,20.3 z m -11,25.5 c 1.9,5.2 4.8,10 8.6,14.1 3.7,3.8 8.2,6.8 13.1,8.8 5.1,2.1 10.6,3.2 16.2,3.1 5.3,0.1 10.7,-0.8 15.7,-2.7 4.4,-1.7 8.6,-3.8 12.5,-6.3 l -5.1,-9.6 c -3.1,2 -6.5,3.6 -10,4.9 -3.7,1.3 -7.5,1.9 -11.4,1.9 -7.6,0.3 -14.9,-2.7 -20.1,-8.2 -5.4,-6.1 -8.4,-13.8 -8.6,-22 h 58 c 0.4,-2.6 0.6,-5.3 0.5,-8 0.1,-5.6 -0.7,-11.2 -2.3,-16.7 -1.4,-4.6 -3.6,-9 -6.6,-12.7 -2.9,-3.5 -6.6,-6.3 -10.8,-8.2 -4.6,-1.9 -9.6,-2.9 -14.6,-2.8 -4.9,0 -9.8,1.1 -14.3,3.1 -4.6,2.1 -8.8,5.1 -12.2,8.8 -3.8,4.2 -6.7,9 -8.7,14.2 -4.2,12.6 -4.2,26 0.1,38.3 m -78.2,-40.3 c 3.6,-3.3 7.7,-6.3 12,-8.7 3.4,-2 7.2,-3 11.1,-3.1 3.6,-0.1 7.1,0.7 10.3,2.3 2.9,1.6 5.4,3.9 7.1,6.7 2,3.1 3.3,6.4 4,10 0.9,4.3 1.3,8.6 1.2,12.9 0.1,4.8 -0.6,9.7 -1.9,14.3 -1,3.8 -2.8,7.5 -5.1,10.7 -2.1,2.8 -4.7,5.1 -7.8,6.7 -3,1.6 -6.4,2.4 -9.9,2.4 -3.3,-0.1 -6.6,-0.8 -9.7,-2 -4.2,-1.6 -8,-4 -11.3,-7 z m -0.4,56.4 c 3.7,2.9 7.7,5.3 11.9,7.3 3.7,1.7 7.8,2.6 11.9,2.7 4.9,0 9.7,-1.1 14.2,-3.1 4.6,-2.1 8.6,-5.3 11.8,-9.1 3.6,-4.3 6.4,-9.3 8.2,-14.6 2.1,-6.3 3.2,-12.9 3.1,-19.5 0.1,-6.1 -0.7,-12.2 -2.2,-18.2 -1.3,-5 -3.5,-9.6 -6.5,-13.8 -2.7,-3.8 -6.4,-6.8 -10.6,-8.8 -4.6,-2.2 -9.6,-3.2 -14.7,-3.1 -5.1,0 -10.1,1.2 -14.6,3.5 -4.6,2.3 -8.9,5.2 -12.8,8.5 h -0.5 l -1.3,-9.9 h -12 v 122.3 h 14.5 v -29 z m -92.5,-48.6 c 1,-3.8 2.7,-7.4 5,-10.5 2.1,-2.8 4.8,-5.2 7.9,-6.8 6.3,-3.2 13.8,-3.2 20.2,0 3.1,1.6 5.8,3.9 7.9,6.7 2.3,3.2 4,6.8 5.1,10.5 1.2,4.4 1.8,9 1.8,13.5 0.1,4.5 -0.5,9.1 -1.8,13.5 -1,3.7 -2.8,7.2 -5.1,10.3 -2.1,2.8 -4.8,5.1 -7.9,6.7 -6.3,3.2 -13.8,3.2 -20.2,0 -3.1,-1.6 -5.8,-3.9 -7.9,-6.7 -2.3,-3.1 -4,-6.6 -5,-10.3 -1.2,-4.4 -1.8,-8.9 -1.8,-13.5 -0.1,-4.6 0.6,-9.1 1.8,-13.5 m -13.5,32.6 c 2,5.2 4.9,10 8.8,14.1 3.5,3.8 7.8,6.8 12.5,8.8 9.7,4 20.6,4 30.3,0 4.7,-2 9,-5 12.5,-8.8 3.8,-4.1 6.8,-8.9 8.8,-14.1 2.2,-6.1 3.3,-12.6 3.1,-19 0.2,-6.5 -0.9,-13.1 -3.1,-19.2 -2,-5.3 -4.9,-10.1 -8.8,-14.2 -3.5,-3.8 -7.8,-6.8 -12.5,-8.8 -9.7,-4 -20.6,-4 -30.3,0 -4.8,2 -9,5 -12.5,8.8 -3.8,4.1 -6.8,9 -8.8,14.2 -2.2,6.2 -3.3,12.7 -3.1,19.2 -0.2,6.4 0.9,12.9 3.1,19"
   id="open_1_"
   inkscape:connector-curvature="0" />

		</g>
  </g>
  <g
     inkscape:label="Ebene 1"
     inkscape:groupmode="layer"
     id="layer1"
     transform="translate(8.541843,-13.662758)"
     style="display:inline">
    <g
       transform="translate(13.810329,-143.85761)"
       id="g1990">
      <g
         id="g1709"
         clip-path="url(#clipPath1711)"
         transform="matrix(1.0552587,0,0,0.67517097,-10.157194,157.20955)">
        <g
           inkscape:label="Clip"
           id="g1707">
          <g
             clip-path="url(#clipPath1700)"
             id="g1698">
            <g
               id="g1696"
               inkscape:label="Clip">
              <g
                 id="g2095">
                <g
                   id="g2221" />
              </g>
            </g>
          </g>
        </g>
      </g>
    </g>
    <g
       id="g966">
      <g
         transform="matrix(0.08425,0,0,0.08425,134.18516,106.43985)"
         id="IT_OC_red"
         style="display:inline;opacity:1;enable-background:new">
			<path
   style="fill:#ffffff"
   inkscape:connector-curvature="0"
   id="BG_white"
   class="st2"
   d="m 660,410 v 300 h 300 c 165.7,0 300,-134.3 300,-300 0,-165.7 -134.3,-300 -300,-300 -165.7,0 -300,134.3 -300,300" />

			<path
   style="fill:#de092f"
   inkscape:connector-curvature="0"
   class="st3"
   d="m 1254.4,352 c 3.7,18.8 5.6,38.2 5.6,58 0,39.4 -7.6,77.1 -21.4,111.6 -13.7,3.3 -27.1,4.9 -42.1,4.9 -30.2,0 -54.3,-8 -72.5,-24.2 -18.1,-16.2 -27.2,-38 -27.2,-65.4 0,-28 9.5,-50.4 28.5,-67.3 19,-16.9 44.1,-25.4 75.4,-25.4 19.6,-0.1 36.9,2.3 53.7,7.8 z m -187.3,113.9 v -77.4 h 27 v -17.4 h -75.3 v 17.4 h 26.9 v 77.4 z m 114.6,115.5 c -32.8,0.1 -61.5,-5.6 -86.2,-17 -24,-11 -42.6,-26.7 -55.9,-47.1 -13.4,19.3 -31.3,34.5 -53.7,45.6 -25,12.3 -53.3,18.5 -84.8,18.5 -30.8,0 -58.5,-6 -83.1,-18 -24.6,-12 -43.7,-28.9 -57.3,-50.5 -13.5,-21.7 -20.3,-46.3 -20.3,-73.8 0,-29.3 6.8,-55.3 20.5,-78 13.7,-22.7 33.2,-40.3 58.5,-52.9 25.3,-12.5 54.3,-18.8 86.9,-18.8 30.5,0 57.8,6 82.1,17.9 24,11.8 42.6,28.5 55.9,50.1 14.6,-20.8 34.3,-37.1 59.3,-48.9 27,-12.8 57.4,-19.1 91.1,-19.1 15.2,0 28.1,0.6 41.1,2.2 C 1189.8,184.8 1083.6,110 960,110 794.3,110 660,244.3 660,410 v 300 h 300 c 102.4,0 192.8,-51.3 246.9,-129.6 -7.4,0.5 -16,1 -25.2,1 z m -170,-74.1 h 21.4 v -94.8 h -21.4 z m -108.3,-164 c -25.8,0 -46.4,8.3 -62,24.9 -15.5,16.6 -23.2,38.8 -23.2,66.4 0,27.5 7.6,49.5 22.8,65.9 15.2,16.4 35.4,24.7 60.6,24.7 25.6,0 46,-8 61,-23.9 15.1,-15.9 22.6,-37.8 22.6,-65.5 0,-28.7 -7.2,-51.3 -21.6,-67.8 C 949,351.6 929,343.3 903.4,343.3 Z"
   id="path911" />

		</g>
      <g
         transform="matrix(0.67386213,0,0,0.67386213,116.45494,80.571037)"
         style="fill:#dc0a2e;fill-opacity:1"
         id="g2310">
        <path
           style="fill:#dc0a2e;fill-opacity:1;stroke:#9c1cff;stroke-width:0;stroke-miterlimit:4;stroke-dasharray:none;stroke-opacity:1"
           d="m 150.01438,124.98842 -21.14258,-9.85894 -17.5388,37.61202 12.72227,-0.87609 8.41174,10.5982 0.0586,0.0296 z"
           id="rect2271"
           inkscape:connector-curvature="0" />
        <path
           id="path2279"
           d="m 169.8566,115.12946 -21.1426,9.85896 17.53877,37.61208 7.50659,-10.30897 13.52564,0.36862 0.0603,-0.026 z"
           style="fill:#dc0a2e;fill-opacity:1;stroke:#9c1cff;stroke-width:0;stroke-miterlimit:4;stroke-dasharray:none;stroke-opacity:1"
           inkscape:connector-curvature="0" />
      </g>
    </g>
  </g>
  <style
     id="style905"
     type="text/css">
	.st0{display:none;}
	.st1{display:inline;fill:none;}
	.st2{fill:#FFFFFF;}
	.st3{fill:#DE092F;}
</style>
</svg>
