<?xml version="1.0" encoding="UTF-8" standalone="no"?>
<!-- Created with Inkscape (http://www.inkscape.org/) -->

<svg
   xmlns:dc="http://purl.org/dc/elements/1.1/"
   xmlns:cc="http://creativecommons.org/ns#"
   xmlns:rdf="http://www.w3.org/1999/02/22-rdf-syntax-ns#"
   xmlns:svg="http://www.w3.org/2000/svg"
   xmlns="http://www.w3.org/2000/svg"
   xmlns:xlink="http://www.w3.org/1999/xlink"
   xmlns:sodipodi="http://sodipodi.sourceforge.net/DTD/sodipodi-0.dtd"
   xmlns:inkscape="http://www.inkscape.org/namespaces/inkscape"
   width="251.24168mm"
   height="176.47859mm"
   viewBox="0 0 251.24169 176.4786"
   version="1.1"
   id="svg8"
   inkscape:version="0.92.4 (5da689c313, 2019-01-14)"
   sodipodi:docname="license-certificate-community.svg.2020_03_17_15_43_50.0.svg"
   inkscape:export-filename="/home/timo/Bilder/license-certificate/license-certificate-community.png"
   inkscape:export-xdpi="170.92844"
   inkscape:export-ydpi="170.92844"
   style="enable-background:new">
  <defs
     id="defs2">
    <clipPath
       clipPathUnits="userSpaceOnUse"
       id="clipPath826">
      <g
         inkscape:label="Clip"
         id="use828">
        <rect
           transform="rotate(-45)"
           y="-12.901624"
           x="-54.298336"
           height="71.628227"
           width="93.009789"
           id="rect887"
           style="fill:#515150;fill-opacity:1;stroke-width:0.26458332" />
      </g>
    </clipPath>
    <clipPath
       clipPathUnits="userSpaceOnUse"
       id="clipPath854">
      <g
         id="use856"
         inkscape:label="Clip">
        <g
           id="g883"
           clip-path="url(#clipPath826)">
          <g
             inkscape:label="Clip"
             id="g881">
            <rect
               transform="rotate(-45)"
               y="-12.901624"
               x="-54.298336"
               height="71.628227"
               width="93.009789"
               id="rect879"
               style="fill:#515150;fill-opacity:1;stroke-width:0.26458332" />
          </g>
        </g>
      </g>
    </clipPath>
    <clipPath
       clipPathUnits="userSpaceOnUse"
       id="clipPath875">
      <path
         style="fill:none;stroke:#000000;stroke-width:0.26458332px;stroke-linecap:butt;stroke-linejoin:miter;stroke-opacity:1"
         d="M 52.384828,23.316004 H 168.91434 V 129.15474 H 22.985179 V 49.508418 L 48.910325,23.583273 Z"
         id="path877"
         inkscape:connector-curvature="0" />
    </clipPath>
    <clipPath
       clipPathUnits="userSpaceOnUse"
       id="clipPath1700">
      <use
         x="0"
         y="0"
         xlink:href="#g1696"
         id="use1702"
         width="100%"
         height="100%" />
    </clipPath>
    <clipPath
       clipPathUnits="userSpaceOnUse"
       id="clipPath1711">
      <use
         x="0"
         y="0"
         xlink:href="#g1707"
         id="use1713"
         width="100%"
         height="100%" />
    </clipPath>
    <clipPath
       clipPathUnits="userSpaceOnUse"
       id="clipPath1759">
      <g
         style="fill:#515150;fill-opacity:1"
         inkscape:label="Clip"
         id="use1761">
        <path
           inkscape:connector-curvature="0"
           id="path2402"
           transform="matrix(0.26458333,0,0,0.26458333,-3.4525829,24.16808)"
           d="M 237.66211,67.824219 V 194.5332 h -1.45117 -26.26563 -94.95312 V 467.8457 H 456.61133 A 151.73502,151.73502 0 0 1 411.16211,359.74414 151.73502,151.73502 0 0 1 562.89648,208.00781 151.73502,151.73502 0 0 1 664.51562,247.29492 V 67.824219 Z m -27.7168,4.042969 -94.95312,94.953122 h 94.95312 z"
           style="fill:#515150;fill-opacity:1;stroke-width:0.99999994" />
      </g>
    </clipPath>
    <clipPath
       clipPathUnits="userSpaceOnUse"
       id="clipPath2003">
      <g
         inkscape:label="Clip"
         id="use2005">
        <g
           transform="translate(13.810329,-135.80159)"
           id="g2081">
          <rect
             style="fill:#f95150;fill-opacity:1;stroke-width:0.18118699"
             id="rect2069"
             width="32.606884"
             height="6.9489999"
             x="16.080015"
             y="188.37897" />
          <g
             id="g2079"
             clip-path="url(#clipPath1711)"
             transform="matrix(1,0,0,0.67516188,-7.4397049,157.21006)">
            <g
               inkscape:label="Clip"
               id="g2077">
              <g
                 clip-path="url(#clipPath1700)"
                 id="g2075">
                <g
                   id="g2073"
                   inkscape:label="Clip">
                  <rect
                     y="49.177593"
                     x="-56.457428"
                     height="6.949007"
                     width="50.781212"
                     id="rect2071"
                     style="fill:#f95150;fill-opacity:1;stroke-width:0.22611226"
                     transform="rotate(-90)" />
                </g>
              </g>
            </g>
          </g>
        </g>
      </g>
    </clipPath>
    <clipPath
       clipPathUnits="userSpaceOnUse"
       id="clipPath2204">
      <g
         inkscape:label="Clip"
         id="use2206"
         style="fill:#515150;fill-opacity:1">
        <g
           transform="translate(3.4525829,-24.16808)"
           clip-path="url(#clipPath1759)"
           id="g908"
           style="fill:#515150;fill-opacity:1">
          <g
             id="g906"
             inkscape:label="Clip"
             style="fill:#515150;fill-opacity:1">
            <path
               style="fill:#515150;fill-opacity:1;stroke-width:0.99999994"
               d="M 237.66211,67.824219 V 194.5332 h -1.45117 -26.26563 -94.95312 V 467.8457 H 456.61133 A 151.73502,151.73502 0 0 1 411.16211,359.74414 151.73502,151.73502 0 0 1 562.89648,208.00781 151.73502,151.73502 0 0 1 664.51562,247.29492 V 67.824219 Z m -27.7168,4.042969 -94.95312,94.953122 h 94.95312 z"
               transform="matrix(0.26458333,0,0,0.26458333,-3.4525829,24.16808)"
               id="path904"
               inkscape:connector-curvature="0" />
          </g>
        </g>
      </g>
    </clipPath>
    <rect
       height="38.299999"
       width="137.8"
       y="26.799999"
       x="16"
       id="SVGID_1_" />
    <rect
       height="38.299999"
       width="137.8"
       y="26.799999"
       x="16"
       id="SVGID_3_" />
    <rect
       height="38.299999"
       width="137.8"
       y="26.799999"
       x="16"
       id="SVGID_5_" />
    <path
       d="m 0.3,80 v 80 h 80 c 44.2,0 80,-35.8 80,-80 0,-44.2 -35.8,-80 -80,-80 -44.2,0 -80,35.8 -80,80"
       id="Maske_2_"
       inkscape:connector-curvature="0" />
    <clipPath
       id="Maske_1_-3">
      <use
         id="use1046-6"
         style="overflow:visible"
         xlink:href="#Maske_2_"
         x="0"
         y="0"
         width="100%"
         height="100%" />
    </clipPath>
    <path
       d="m 0.3,80 v 80 h 80 c 44.2,0 80,-35.8 80,-80 0,-44.2 -35.8,-80 -80,-80 -44.2,0 -80,35.8 -80,80"
       id="path1135-9"
       inkscape:connector-curvature="0" />
  </defs>
  <sodipodi:namedview
     id="base"
     pagecolor="#ffffff"
     bordercolor="#666666"
     borderopacity="1.0"
     inkscape:pageopacity="0.0"
     inkscape:pageshadow="2"
     inkscape:zoom="0.68970107"
     inkscape:cx="323.10463"
     inkscape:cy="416.16191"
     inkscape:document-units="mm"
     inkscape:current-layer="layer1"
     showgrid="false"
     inkscape:measure-start="0,0"
     inkscape:measure-end="0,0"
     inkscape:window-width="1920"
     inkscape:window-height="1015"
     inkscape:window-x="1920"
     inkscape:window-y="108"
     inkscape:window-maximized="1" />
  <metadata
     id="metadata5">
    <rdf:RDF>
      <cc:Work
         rdf:about="">
        <dc:format>image/svg+xml</dc:format>
        <dc:type
           rdf:resource="http://purl.org/dc/dcmitype/StillImage" />
        <dc:title />
      </cc:Work>
    </rdf:RDF>
  </metadata>
  <g
     inkscape:groupmode="layer"
     id="layer3"
     inkscape:label="Ebene 3"
     transform="translate(38.96686,4.2823991)"
     style="display:inline" />
  <g
     inkscape:groupmode="layer"
     id="layer2"
     inkscape:label="Ebene 2"
     transform="translate(38.96686,4.2823991)"
     style="display:inline;opacity:1">
    <path
       transform="translate(-30.425017,-17.945157)"
       style="display:inline;opacity:1;fill:#4085c6;fill-opacity:1;stroke:none;stroke-width:0.63723475;stroke-linecap:butt;stroke-miterlimit:4;stroke-dasharray:none;stroke-dashoffset:25.00000191;stroke-opacity:1;paint-order:stroke markers fill"
       d="M 42.086768,19.81411 -1.6235525,63.524431 v 0.02199 H 42.109171 V 19.81411 Z"
       id="rect2408"
       inkscape:connector-curvature="0" />
    <path
       style="display:inline;opacity:1;fill:none;fill-opacity:1;stroke:#515151;stroke-width:3;stroke-linecap:butt;stroke-miterlimit:4;stroke-dasharray:none;stroke-dashoffset:25.00000191;stroke-opacity:1;paint-order:stroke markers fill"
       d="M 210.33398,1.5 V 207.43359 H 1.5 v 338.66993 h 802.64648 a 70.741362,69.716094 0 0 1 -21.89062,-50.3125 70.741362,69.716094 0 0 1 70.74023,-69.7168 70.741362,69.716094 0 0 1 52.03711,22.5918 V 1.5 Z M 905.0332,542.89258 a 70.741362,69.716094 0 0 1 -3.09765,3.21094 h 3.09765 z"
       transform="matrix(0.26458333,0,0,0.26458333,-38.96686,-4.2823991)"
       id="rect2413"
       inkscape:connector-curvature="0" />
  </g>
  <g
     inkscape:label="Ebene 1"
     inkscape:groupmode="layer"
     id="layer1"
     transform="translate(8.541843,-13.662758)"
     style="display:inline">
    <g
       transform="translate(13.810329,-143.85761)"
       id="g1990">
      <g
         id="g1709"
         clip-path="url(#clipPath1711)"
         transform="matrix(1.0552587,0,0,0.67517097,-10.157194,157.20955)">
        <g
           inkscape:label="Clip"
           id="g1707">
          <g
             clip-path="url(#clipPath1700)"
             id="g1698">
            <g
               id="g1696"
               inkscape:label="Clip">
              <g
                 id="g2095">
                <g
                   id="g2221" />
              </g>
            </g>
          </g>
        </g>
      </g>
    </g>
    <g
       id="BLUE"
       transform="matrix(0.24041178,0,0,0.24041178,7.5921404,20.262558)">
      <path
         d="m 865.5,111.5 h 11.2 V 57.9 h 18.1 v -9.4 h -47.5 v 9.4 h 18.2 z m -37.2,0 h 11.2 v -63 H 828.3 Z M 786,79.4 v -22 h 9.1 c 4.6,0 8.1,0.8 10.4,2.3 2.3,1.5 3.5,4.3 3.5,8.2 0,3.9 -1.1,6.7 -3.4,8.6 -2.2,1.9 -5.7,2.8 -10.5,2.8 H 786 Z m -11.2,32.1 H 786 V 88.4 h 10 c 3.3,0 6.5,-0.4 9.4,-1.2 2.9,-0.8 5.5,-2.1 7.6,-3.8 2.1,-1.7 3.8,-3.8 5.1,-6.4 1.2,-2.6 1.8,-5.6 1.8,-9.1 0,-3.7 -0.6,-6.7 -1.8,-9.2 -1.2,-2.5 -2.8,-4.5 -5,-6 -2.1,-1.5 -4.6,-2.6 -7.6,-3.3 -2.9,-0.6 -6.1,-1 -9.6,-1 h -21.2 v 63.1 z m -56.2,0 h 11.2 V 93.1 l 9.1,-11.3 16.9,29.7 h 12.3 L 745.5,73 764.9,48.4 H 752.6 L 730.2,77 h -0.3 V 48.5 h -11.2 v 63 z M 664.7,94.1 c 1.5,4 3.5,7.5 6.1,10.2 2.6,2.8 5.6,4.9 9.1,6.3 3.5,1.4 7.2,2.1 11.2,2.1 4,0 7.7,-0.8 10.9,-2.4 3.2,-1.6 6.1,-3.8 8.7,-6.8 l -6.2,-6.8 c -1.8,2 -3.8,3.5 -5.9,4.6 -2.1,1.1 -4.6,1.6 -7.4,1.6 -5.3,0 -9.5,-2 -12.6,-6.1 -3.1,-4.1 -4.7,-9.7 -4.7,-16.9 0,-3.5 0.4,-6.7 1.3,-9.5 0.9,-2.8 2.1,-5.2 3.7,-7.2 1.6,-2 3.4,-3.5 5.6,-4.5 2.2,-1.1 4.6,-1.6 7.1,-1.6 2.4,0 4.6,0.5 6.4,1.4 1.8,0.9 3.6,2.2 5.3,3.8 l 6.2,-6.9 c -2,-2.1 -4.5,-4 -7.6,-5.6 -3,-1.6 -6.5,-2.4 -10.4,-2.4 -4,0 -7.8,0.7 -11.4,2.2 -3.5,1.5 -6.6,3.6 -9.2,6.5 -2.6,2.8 -4.7,6.3 -6.2,10.4 -1.5,4.1 -2.3,8.7 -2.3,13.8 0.1,5.1 0.9,9.7 2.3,13.8 m -43.9,7.2 c -2,-1.1 -3.7,-2.7 -5.2,-4.7 -1.4,-2 -2.6,-4.5 -3.3,-7.3 -0.8,-2.9 -1.2,-6.1 -1.2,-9.6 0,-7.1 1.5,-12.6 4.4,-16.6 3,-4 6.9,-6 11.9,-6 4.9,0 8.9,2 11.8,6 3,4 4.4,9.6 4.4,16.6 0,3.5 -0.4,6.7 -1.2,9.6 -0.8,2.9 -1.9,5.3 -3.3,7.3 -1.4,2 -3.1,3.6 -5.2,4.7 -2,1.1 -4.3,1.6 -6.7,1.6 -2.2,0 -4.5,-0.5 -6.4,-1.6 m 18,9.1 c 3.4,-1.5 6.3,-3.7 8.8,-6.6 2.5,-2.9 4.3,-6.3 5.7,-10.4 1.3,-4.1 2,-8.6 2,-13.8 0,-5.1 -0.7,-9.6 -2,-13.6 -1.3,-4 -3.2,-7.4 -5.7,-10.2 -2.4,-2.8 -5.4,-4.9 -8.8,-6.4 -3.4,-1.5 -7.2,-2.2 -11.3,-2.2 -4.1,0 -7.9,0.7 -11.3,2.2 -3.4,1.5 -6.3,3.6 -8.8,6.4 -2.5,2.8 -4.4,6.2 -5.7,10.2 -1.3,4 -2,8.6 -2,13.6 0,5.1 0.7,9.7 2,13.8 1.3,4 3.3,7.5 5.7,10.4 2.5,2.9 5.4,5 8.8,6.6 3.4,1.5 7.2,2.3 11.3,2.3 4.1,0 7.9,-0.8 11.3,-2.3 M 549.4,94.1 c 1.5,4 3.5,7.5 6.1,10.2 2.6,2.8 5.6,4.9 9.1,6.3 3.5,1.4 7.2,2.1 11.2,2.1 4,0 7.7,-0.8 10.9,-2.4 3.2,-1.6 6.1,-3.8 8.7,-6.8 l -6.2,-6.8 c -1.8,2 -3.8,3.5 -5.9,4.6 -2.1,1.1 -4.6,1.6 -7.4,1.6 -5.3,0 -9.5,-2 -12.6,-6.1 -3.1,-4.1 -4.7,-9.7 -4.7,-16.9 0,-3.5 0.4,-6.7 1.3,-9.5 0.9,-2.8 2.1,-5.2 3.7,-7.2 1.6,-2 3.5,-3.5 5.6,-4.5 2.2,-1.1 4.6,-1.6 7.1,-1.6 2.4,0 4.6,0.5 6.4,1.4 1.8,0.9 3.6,2.2 5.2,3.8 l 6.2,-6.9 c -2,-2.1 -4.5,-4 -7.6,-5.6 -3,-1.6 -6.5,-2.4 -10.4,-2.4 -4,0 -7.8,0.7 -11.4,2.2 -3.5,1.5 -6.6,3.6 -9.2,6.5 -2.6,2.8 -4.7,6.3 -6.2,10.4 -1.5,4.1 -2.3,8.7 -2.3,13.8 0.2,5.1 1,9.7 2.4,13.8"
         class="st0"
         id="IT_COCKPIT_1_"
         inkscape:connector-curvature="0"
         style="fill:#4085c6" />
      <polygon
         id="polygon913"
         points="494,57.9 494,111.5 505.2,111.5 505.2,57.9 523.3,57.9 523.3,48.5 475.8,48.5 475.8,57.9 "
         class="st0"
         style="fill:#4085c6" />
      <rect
         id="rect915"
         height="63"
         width="11.2"
         class="st0"
         y="48.5"
         x="454.39999"
         style="fill:#4085c6" />
      <path
         d="m 371.7,111.5 h 9 V 72.7 c 2.7,-2.7 5.1,-4.8 7.3,-6.2 2.1,-1.4 4.6,-2.1 7.4,-2.1 3.5,0 6.1,1.1 7.7,3.4 1.6,2.2 2.4,5.9 2.4,11 v 32.8 h 9 v -34 c 0,-6.9 -1.3,-12.2 -3.9,-15.7 -2.6,-3.5 -6.8,-5.3 -12.4,-5.3 -3.8,0 -7,0.9 -9.9,2.6 -2.8,1.7 -5.5,3.9 -8.1,6.5 h -0.3 L 379.1,58 h -7.5 v 53.5 z M 323.6,80.7 c 0.3,-2.7 0.9,-5.1 1.8,-7.2 0.9,-2.1 2.1,-3.9 3.5,-5.3 1.4,-1.4 3,-2.5 4.7,-3.3 1.7,-0.8 3.5,-1.2 5.5,-1.2 4.2,0 7.4,1.5 9.8,4.4 2.3,2.9 3.5,7.1 3.5,12.6 z m -6.8,15.9 c 1.3,3.5 3.1,6.4 5.5,8.8 2.3,2.4 5,4.2 8.2,5.5 3.1,1.3 6.5,1.9 10.1,1.9 3.7,0 7,-0.6 9.8,-1.7 2.9,-1.1 5.5,-2.4 7.8,-3.9 l -3.2,-6 c -2,1.3 -4.1,2.3 -6.2,3 -2.2,0.8 -4.5,1.2 -7.1,1.2 -5.1,0 -9.3,-1.7 -12.5,-5.1 -3.2,-3.4 -5,-8 -5.4,-13.8 H 360 c 0.2,-1.3 0.3,-3 0.3,-5 0,-3.8 -0.5,-7.3 -1.4,-10.4 -1,-3.1 -2.3,-5.7 -4.1,-8 -1.8,-2.2 -4,-3.9 -6.7,-5.1 -2.7,-1.2 -5.7,-1.8 -9.1,-1.8 -3.1,0 -6.1,0.6 -8.9,1.9 -2.9,1.3 -5.4,3.1 -7.7,5.6 -2.2,2.4 -4,5.4 -5.4,8.9 -1.4,3.5 -2,7.5 -2,11.9 -0.2,4.7 0.5,8.7 1.8,12.1 M 268,71.4 c 2.6,-2.4 5.1,-4.2 7.4,-5.4 2.3,-1.2 4.6,-1.9 6.9,-1.9 2.5,0 4.7,0.5 6.5,1.4 1.8,1 3.3,2.3 4.4,4 1.1,1.7 2,3.8 2.5,6.2 0.5,2.4 0.8,5.1 0.8,8.1 0,3.3 -0.4,6.3 -1.2,8.9 -0.8,2.7 -1.8,4.9 -3.2,6.7 -1.4,1.8 -3,3.2 -4.9,4.2 -1.9,1 -3.9,1.5 -6.1,1.5 -1.8,0 -3.8,-0.4 -6.1,-1.3 -2.3,-0.8 -4.6,-2.3 -7.1,-4.4 v -28 z m -0.2,35.3 c 2.5,1.9 5,3.4 7.4,4.5 2.5,1.1 4.9,1.7 7.4,1.7 3.1,0 6,-0.6 8.8,-1.9 2.8,-1.3 5.3,-3.2 7.4,-5.7 2.1,-2.5 3.8,-5.5 5.1,-9.1 1.3,-3.6 1.9,-7.6 1.9,-12.2 0,-4.2 -0.5,-8 -1.4,-11.3 -0.9,-3.4 -2.3,-6.2 -4,-8.6 -1.8,-2.4 -4,-4.2 -6.6,-5.5 -2.6,-1.3 -5.7,-1.9 -9.2,-1.9 -3.2,0 -6.2,0.7 -9.1,2.2 -2.9,1.5 -5.6,3.2 -8,5.3 h -0.3 L 266.4,58 H 259 v 76.3 h 9 V 116.2 Z M 210.1,76.4 c 0.7,-2.5 1.8,-4.7 3.1,-6.6 1.4,-1.8 3,-3.3 4.9,-4.3 1.9,-1 4,-1.5 6.3,-1.5 2.3,0 4.4,0.5 6.3,1.5 1.9,1 3.5,2.4 4.9,4.3 1.4,1.8 2.4,4 3.1,6.6 0.7,2.5 1.1,5.4 1.1,8.4 0,3.1 -0.4,5.9 -1.1,8.4 -0.7,2.5 -1.8,4.7 -3.1,6.5 -1.4,1.8 -3,3.2 -4.9,4.2 -1.9,1 -4,1.5 -6.3,1.5 -2.3,0 -4.4,-0.5 -6.3,-1.5 -1.9,-1 -3.5,-2.4 -4.9,-4.2 -1.4,-1.8 -2.4,-4 -3.1,-6.5 -0.7,-2.5 -1.1,-5.3 -1.1,-8.4 0,-3.1 0.3,-5.9 1.1,-8.4 m -8.5,20.3 c 1.4,3.5 3.2,6.4 5.5,8.8 2.3,2.4 4.9,4.2 7.9,5.5 3,1.2 6.1,1.9 9.4,1.9 3.3,0 6.5,-0.6 9.4,-1.9 3,-1.3 5.6,-3.1 7.9,-5.5 2.3,-2.4 4.1,-5.3 5.5,-8.8 1.4,-3.5 2,-7.5 2,-11.9 0,-4.5 -0.7,-8.5 -2,-12 -1.4,-3.5 -3.2,-6.5 -5.5,-8.9 -2.3,-2.4 -4.9,-4.3 -7.9,-5.5 -3,-1.2 -6.1,-1.9 -9.4,-1.9 -3.3,0 -6.5,0.6 -9.4,1.9 -3,1.3 -5.6,3.1 -7.9,5.5 -2.3,2.4 -4.1,5.4 -5.5,8.9 -1.4,3.5 -2,7.5 -2,12 0,4.4 0.7,8.4 2,11.9"
         id="open_7_"
         inkscape:connector-curvature="0" />
    </g>
    <g
       style="display:none;fill:#4085c6"
       id="HG"
       class="st0"
       transform="matrix(0.1027924,0,0,0.1027924,-179.03642,14.29844)">
      <rect
         style="display:inline;fill:none"
         y="0"
         x="260"
         class="st1"
         width="1400"
         height="1080"
         id="rect1147" />
      <rect
         style="display:inline;fill:none"
         y="0"
         x="260"
         class="st1"
         width="1400"
         height="1080"
         id="rect1149" />
    </g>
    <path
       d="m -111.19344,56.443324 v 30.83772 h 30.837724 c 17.032701,0 30.83772,-13.805019 30.83772,-30.83772 0,-17.032701 -13.805019,-30.83772 -30.83772,-30.83772 -17.032701,0 -30.837724,13.805019 -30.837724,30.83772"
       class="st2"
       id="BG_white"
       inkscape:connector-curvature="0"
       style="fill:#ffffff;stroke-width:0.1027924" />
    <g
       id="g1037">
      <g
         transform="matrix(0.67386213,0,0,0.67386213,116.45494,80.571037)"
         style="fill:#4085c6;fill-opacity:1"
         id="g2310">
        <path
           style="fill:#4085c6;fill-opacity:1;stroke:#9c1cff;stroke-width:0;stroke-miterlimit:4;stroke-dasharray:none;stroke-opacity:1"
           d="m 150.01438,124.98842 -21.14258,-9.85894 -17.5388,37.61202 12.72227,-0.87609 8.41174,10.5982 0.0586,0.0296 z"
           id="rect2271"
           inkscape:connector-curvature="0" />
        <path
           id="path2279"
           d="m 169.8566,115.12946 -21.1426,9.85896 17.53877,37.61208 7.50659,-10.30897 13.52564,0.36862 0.0603,-0.026 z"
           style="fill:#4085c6;fill-opacity:1;stroke:#9c1cff;stroke-width:0;stroke-miterlimit:4;stroke-dasharray:none;stroke-opacity:1"
           inkscape:connector-curvature="0" />
      </g>
      <g
         id="g1028">
        <rect
           transform="translate(30.425017,17.945157)"
           style="display:inline;opacity:1;fill:none;fill-opacity:1;stroke:none;stroke-width:0.36460137;stroke-linecap:butt;stroke-miterlimit:4;stroke-dasharray:none;stroke-dashoffset:25.00000191;stroke-opacity:1;paint-order:stroke markers fill;enable-background:new"
           id="rect2573"
           width="32.557682"
           height="32.551262"
           x="172.60994"
           y="113.06139" />
        <circle
           style="opacity:1;fill:#ffffff;fill-opacity:1;stroke:none;stroke-width:0.80408716;stroke-linecap:butt;stroke-miterlimit:4;stroke-dasharray:none;stroke-dashoffset:25.00000191;stroke-opacity:1;paint-order:stroke markers fill"
           id="path2025"
           cx="215.06516"
           cy="140.69827"
           r="25.275" />
        <path
           id="path1153"
           d="m 239.86881,136.0953 c 0.31173,1.58391 0.4718,3.21837 0.4718,4.88653 0,3.31949 -0.6403,6.49574 -1.80296,9.4024 -1.15424,0.27802 -2.2832,0.41282 -3.54696,0.41282 -2.54437,0 -4.57481,-0.67401 -6.10818,-2.03887 -1.52494,-1.36486 -2.29162,-3.20153 -2.29162,-5.51 0,-2.35902 0.80038,-4.24624 2.40115,-5.67007 1.60076,-1.42384 3.71545,-2.13998 6.3525,-2.13998 1.65132,-0.008 3.10885,0.19379 4.52427,0.65717 z m -15.78017,9.59616 v -6.52101 h 2.27477 v -1.46597 h -6.34407 v 1.46597 h 2.26634 v 6.52101 z m 9.65514,9.73096 c -2.76342,0.008 -5.18142,-0.47181 -7.26242,-1.43227 -2.02201,-0.92676 -3.58907,-2.24949 -4.70961,-3.96821 -1.12896,1.62604 -2.63705,2.90666 -4.52426,3.84184 -2.10627,1.03628 -4.49057,1.55864 -7.14447,1.55864 -2.59492,0 -4.92867,-0.50551 -7.00124,-1.51652 -2.07257,-1.01101 -3.68176,-2.43484 -4.82756,-4.25466 -1.13739,-1.82824 -1.7103,-3.90081 -1.7103,-6.21771 0,-2.46854 0.57291,-4.65906 1.72715,-6.57155 1.15423,-1.91249 2.79712,-3.39531 4.92866,-4.45687 2.13155,-1.05314 4.57482,-1.58391 7.32139,-1.58391 2.56965,0 4.86969,0.50551 6.91699,1.50809 2.02202,0.99416 3.58908,2.40114 4.70961,4.22096 1.23007,-1.75242 2.88981,-3.1257 4.99607,-4.11986 2.27478,-1.07842 4.836,-1.60919 7.67525,-1.60919 1.28061,0 2.36745,0.0506 3.46271,0.18535 -3.87554,-8.99798 -12.82297,-15.29994 -23.23636,-15.29994 -13.96035,0 -25.27523,11.31488 -25.27523,25.27522 v 25.27523 h 25.27523 c 8.62728,0 16.24354,-4.32206 20.80151,-10.91889 -0.62346,0.0421 -1.34801,0.0842 -2.12312,0.0842 z m -14.32263,-6.24298 h 1.80297 v -7.98697 h -1.80297 z m -9.12436,-13.81713 c -2.17366,0 -3.90923,0.69929 -5.22354,2.09784 -1.30589,1.39857 -1.95462,3.26894 -1.95462,5.59426 0,2.31689 0.6403,4.17041 1.92092,5.55212 1.28061,1.38171 2.98248,2.081 5.1056,2.081 2.15681,0 3.87553,-0.67401 5.13929,-2.0136 1.27219,-1.33959 1.90407,-3.18467 1.90407,-5.51842 0,-2.418 -0.60661,-4.32206 -1.81982,-5.71221 -1.23006,-1.3817 -2.91507,-2.08099 -5.0719,-2.08099 z"
           class="st3"
           inkscape:connector-curvature="0"
           style="fill:#4085c6;stroke-width:0.08425075" />
      </g>
    </g>
    <g
       id="Text"
       transform="matrix(0.1027924,0,0,0.1027924,-179.03642,14.29844)" />
    <g
       id="Isolationsmodus"
       transform="matrix(0.1027924,0,0,0.1027924,-179.03642,14.29844)" />
  </g>
  <style
     id="style866"
     type="text/css">
	.st0{clip-path:url(#SVGID_2_);}
	.st1{clip-path:url(#SVGID_4_);}
	.st2{fill:#4085C6;}
	.st3{clip-path:url(#SVGID_6_);fill:#4085C6;}
	.st4{clip-path:url(#SVGID_6_);}
	.st5{font-family:'PTSans-Narrow';}
	.st6{font-size:11.8469px;}
</style>
  <style
     id="style910"
     type="text/css">
	.st0{fill:#4085C6;}
	.st1{fill:#488CCB;}
	.st2{fill:#609FD6;}
	.st3{fill:#5798D2;}
	.st4{fill:#66A5DA;}
	.st5{fill:#5597D1;}
	.st6{fill:#4F92CF;}
	.st7{fill:#67A5DA;}
	.st8{fill:#5496D1;}
	.st9{fill:#2161A2;}
	.st10{fill:#80B7E4;}
	.st11{fill:#4E91CE;}
	.st12{fill:#5B9CD5;}
	.st13{fill:#2266A7;}
	.st14{fill:#5395D0;}
	.st15{fill:#84BAE6;}
	.st16{fill:#599AD3;}
	.st17{fill:#659DD4;}
	.st18{fill:#2A71B2;}
	.st19{fill:#7CB4E3;}
	.st20{fill:#4187C7;}
	.st21{fill:#4B8ECC;}
	.st22{fill:#4589C8;}
	.st23{fill:#184D8F;}
	.st24{fill:#2267A8;}
	.st25{fill:#3D83C4;}
	.st26{fill:#5194CF;}
	.st27{fill:#78B2E1;}
	.st28{fill:#5E9ED6;}
	.st29{fill:#82B8E5;}
	.st30{fill:#5895D0;}
	.st31{fill:#77B1E1;}
	.st32{fill:#8BBEE8;}
	.st33{fill:#2164A5;}
	.st34{fill:#92C3EA;}
	.st35{fill:#296FB0;}
	.st36{fill:#91C3EA;}
	.st37{clip-path:url(#Maske_1_);fill:#FFFFFF;}
</style>
</svg>
